<?xml version="1.0" encoding="UTF-8"?>
<!DOCTYPE svg PUBLIC "-//W3C//DTD SVG 1.1//EN" "http://www.w3.org/Graphics/SVG/1.1/DTD/svg11.dtd">
<svg xmlns="http://www.w3.org/2000/svg" version="1.1" width="272px" height="272px" style="shape-rendering:geometricPrecision; text-rendering:geometricPrecision; image-rendering:optimizeQuality; fill-rule:evenodd; clip-rule:evenodd" xmlns:xlink="http://www.w3.org/1999/xlink">
<g><path style="opacity:0.928" fill="#000000" d="M 132.5,-0.5 C 133.5,-0.5 134.5,-0.5 135.5,-0.5C 143.067,8.90761 150.9,18.2409 159,27.5C 160.07,33.1439 159.236,38.4772 156.5,43.5C 155.998,44.521 155.332,44.6877 154.5,44C 147.952,36.4539 141.785,28.6205 136,20.5C 135.282,19.5494 134.449,19.3828 133.5,20C 111.833,45.8365 91.9997,73.0032 74,101.5C 63.6091,117.616 55.9424,134.95 51,153.5C 48.2821,165.109 47.9487,176.775 50,188.5C 51.8397,195.859 53.673,203.192 55.5,210.5C 61.5017,209.327 67.1684,207.327 72.5,204.5C 73.7937,194.58 77.7937,185.913 84.5,178.5C 84.3333,178.167 84.1667,177.833 84,177.5C 80.3333,181.833 76.6667,186.167 73,190.5C 71.1225,179.639 73.9558,170.306 81.5,162.5C 82.1667,163.5 82.8333,164.5 83.5,165.5C 86.5861,161.79 90.2528,158.79 94.5,156.5C 97.5743,150.202 99.0743,143.535 99,136.5C 101.706,138.871 104.039,141.537 106,144.5C 107.04,150.783 107.873,157.116 108.5,163.5C 111.421,162.593 114.421,162.26 117.5,162.5C 115.659,165.86 113.159,168.86 110,171.5C 107.88,176.242 105.38,180.742 102.5,185C 96.1166,189.072 89.1166,191.238 81.5,191.5C 75.7331,211.616 82.7331,225.449 102.5,233C 113.042,235.554 123.709,237.388 134.5,238.5C 130.584,240.413 126.584,242.08 122.5,243.5C 144.382,245.723 162.716,238.723 177.5,222.5C 178.287,223.242 178.953,224.075 179.5,225C 175.874,230.955 171.874,236.621 167.5,242C 169.428,244.86 171.761,245.193 174.5,243C 192.728,224.04 194.228,203.873 179,182.5C 176.833,180.333 174.667,178.167 172.5,176C 160.436,167.606 148.103,159.606 135.5,152C 119.991,139.814 114.158,123.981 118,104.5C 119.386,95.888 123.219,88.7213 129.5,83C 127.503,81.8469 127.17,80.3469 128.5,78.5C 145.133,67.3422 163.133,64.5089 182.5,70C 184.996,71.0804 187.33,72.4138 189.5,74C 195.505,81.015 202.839,86.015 211.5,89C 208.905,99.3962 202.572,106.229 192.5,109.5C 178.663,100.889 166.163,102.889 155,115.5C 148.399,126.269 149.233,136.435 157.5,146C 140.257,142.084 130.757,131.25 129,113.5C 128.372,126.897 133.872,137.064 145.5,144C 159.188,150.119 173.188,155.452 187.5,160C 218.243,173.969 228.243,196.802 217.5,228.5C 220.376,199.39 208.709,178.89 182.5,167C 181.5,166.333 180.5,166.333 179.5,167C 215.754,186.18 223.254,213.347 202,248.5C 188.187,262.044 171.687,269.711 152.5,271.5C 145.167,271.5 137.833,271.5 130.5,271.5C 71.8157,265.148 40.1491,232.481 35.5,173.5C 36.0882,156.39 39.9215,140.057 47,124.5C 56.4046,105.347 67.0712,87.0138 79,69.5C 88.721,56.7789 98.0544,43.7789 107,30.5C 114.579,19.42 123.079,9.08667 132.5,-0.5 Z"/></g>
<g><path style="opacity:1" fill="#50666e" d="M 178.5,80.5 C 176.265,80.2053 174.265,80.5386 172.5,81.5C 171.957,81.44 171.624,81.1067 171.5,80.5C 173.973,79.2031 176.307,79.2031 178.5,80.5 Z"/></g>
<g><path style="opacity:1" fill="#99c5d3" d="M 178.5,80.5 C 183.914,81.2464 186.914,84.2464 187.5,89.5C 179.987,91.2468 174.987,88.5801 172.5,81.5C 174.265,80.5386 176.265,80.2053 178.5,80.5 Z"/></g>
<g><path style="opacity:0.893" fill="#000000" d="M 210.5,108.5 C 213.263,108.744 215.429,110.077 217,112.5C 228.429,131.287 234.929,151.621 236.5,173.5C 236.466,185.338 234.133,196.672 229.5,207.5C 228.914,207.291 228.414,206.957 228,206.5C 227.679,200.889 226.346,195.555 224,190.5C 223.554,187.657 223.054,184.824 222.5,182C 223.518,170.974 222.352,160.141 219,149.5C 214.714,138.26 209.88,127.26 204.5,116.5C 206.106,113.557 208.106,110.891 210.5,108.5 Z"/></g>
</svg>
