<?xml version="1.0" encoding="UTF-8"?>
<svg version="1.1" xmlns="http://www.w3.org/2000/svg" viewBox="0 0 540 540" role="img" aria-labelledby="logo mizu">
  <title id="title">Mizu OS</title>
<path d="M0 0 C1.58723877 0.29801514 1.58723877 0.29801514 3.20654297 0.60205078 C26.05354371 5.00394802 48.08725939 11.74656231 69 22 C70.34360596 22.65742187 70.34360596 22.65742187 71.71435547 23.328125 C90.10688943 32.42288793 107.08199511 43.0477447 123 56 C123.5347998 56.43183594 124.06959961 56.86367188 124.62060547 57.30859375 C139.04950207 69.04562723 152.70476963 82.1985881 164 97 C164.76957031 97.95261719 165.53914063 98.90523438 166.33203125 99.88671875 C193.81077028 134.37578175 210.82159657 175.93741135 219 219 C219.18079102 219.93489258 219.36158203 220.86978516 219.54785156 221.83300781 C224.74308388 250.12275197 224.43811606 282.78336006 219 311 C218.80132324 312.05815918 218.60264648 313.11631836 218.39794922 314.20654297 C213.99605198 337.05354371 207.25343769 359.08725939 197 380 C196.56171875 380.8957373 196.1234375 381.79147461 195.671875 382.71435547 C186.57711207 401.10688943 175.9522553 418.08199511 163 434 C162.35224609 434.80219971 162.35224609 434.80219971 161.69140625 435.62060547 C149.95437277 450.04950207 136.8014119 463.70476963 122 475 C121.04738281 475.76957031 120.09476562 476.53914063 119.11328125 477.33203125 C84.62421825 504.81077028 43.06258865 521.82159657 0 530 C-1.40233887 530.27118652 -1.40233887 530.27118652 -2.83300781 530.54785156 C-31.12275197 535.74308388 -63.78336006 535.43811606 -92 530 C-93.05815918 529.80132324 -94.11631836 529.60264648 -95.20654297 529.39794922 C-118.05354371 524.99605198 -140.08725939 518.25343769 -161 508 C-162.34360596 507.34257813 -162.34360596 507.34257813 -163.71435547 506.671875 C-182.10688943 497.57711207 -199.08199511 486.9522553 -215 474 C-215.5347998 473.56816406 -216.06959961 473.13632812 -216.62060547 472.69140625 C-231.04950207 460.95437277 -244.70476963 447.8014119 -256 433 C-256.76957031 432.04738281 -257.53914063 431.09476562 -258.33203125 430.11328125 C-285.81077028 395.62421825 -302.82159657 354.06258865 -311 311 C-311.18079102 310.06510742 -311.36158203 309.13021484 -311.54785156 308.16699219 C-316.74308388 279.87724803 -316.43811606 247.21663994 -311 219 C-310.70198486 217.41276123 -310.70198486 217.41276123 -310.39794922 215.79345703 C-305.99605198 192.94645629 -299.25343769 170.91274061 -289 150 C-288.56171875 149.1042627 -288.1234375 148.20852539 -287.671875 147.28564453 C-278.57711207 128.89311057 -267.9522553 111.91800489 -255 96 C-254.56816406 95.4652002 -254.13632813 94.93040039 -253.69140625 94.37939453 C-241.95437277 79.95049793 -228.8014119 66.29523037 -214 55 C-213.04738281 54.23042969 -212.09476562 53.46085937 -211.11328125 52.66796875 C-176.62421825 25.18922972 -135.06258865 8.17840343 -92 0 C-91.06510742 -0.18079102 -90.13021484 -0.36158203 -89.16699219 -0.54785156 C-60.87724803 -5.74308388 -28.21663994 -5.43811606 0 0 Z " fill="#000000" transform="translate(316,5)"/>
<path d="M0 0 C1.58723877 0.29801514 1.58723877 0.29801514 3.20654297 0.60205078 C26.05354371 5.00394802 48.08725939 11.74656231 69 22 C70.34360596 22.65742187 70.34360596 22.65742187 71.71435547 23.328125 C90.10688943 32.42288793 107.08199511 43.0477447 123 56 C123.5347998 56.43183594 124.06959961 56.86367188 124.62060547 57.30859375 C139.04950207 69.04562723 152.70476963 82.1985881 164 97 C164.76957031 97.95261719 165.53914063 98.90523438 166.33203125 99.88671875 C193.81077028 134.37578175 210.82159657 175.93741135 219 219 C219.18079102 219.93489258 219.36158203 220.86978516 219.54785156 221.83300781 C224.74308388 250.12275197 224.43811606 282.78336006 219 311 C218.80132324 312.05815918 218.60264648 313.11631836 218.39794922 314.20654297 C213.99605198 337.05354371 207.25343769 359.08725939 197 380 C196.56171875 380.8957373 196.1234375 381.79147461 195.671875 382.71435547 C186.57711207 401.10688943 175.9522553 418.08199511 163 434 C162.35224609 434.80219971 162.35224609 434.80219971 161.69140625 435.62060547 C149.95437277 450.04950207 136.8014119 463.70476963 122 475 C121.04738281 475.76957031 120.09476562 476.53914063 119.11328125 477.33203125 C84.62421825 504.81077028 43.06258865 521.82159657 0 530 C-1.40233887 530.27118652 -1.40233887 530.27118652 -2.83300781 530.54785156 C-31.12275197 535.74308388 -63.78336006 535.43811606 -92 530 C-93.05815918 529.80132324 -94.11631836 529.60264648 -95.20654297 529.39794922 C-118.05354371 524.99605198 -140.08725939 518.25343769 -161 508 C-162.34360596 507.34257813 -162.34360596 507.34257813 -163.71435547 506.671875 C-182.10688943 497.57711207 -199.08199511 486.9522553 -215 474 C-215.5347998 473.56816406 -216.06959961 473.13632812 -216.62060547 472.69140625 C-231.04950207 460.95437277 -244.70476963 447.8014119 -256 433 C-256.76957031 432.04738281 -257.53914063 431.09476562 -258.33203125 430.11328125 C-285.81077028 395.62421825 -302.82159657 354.06258865 -311 311 C-311.18079102 310.06510742 -311.36158203 309.13021484 -311.54785156 308.16699219 C-316.74308388 279.87724803 -316.43811606 247.21663994 -311 219 C-310.70198486 217.41276123 -310.70198486 217.41276123 -310.39794922 215.79345703 C-305.99605198 192.94645629 -299.25343769 170.91274061 -289 150 C-288.56171875 149.1042627 -288.1234375 148.20852539 -287.671875 147.28564453 C-278.57711207 128.89311057 -267.9522553 111.91800489 -255 96 C-254.56816406 95.4652002 -254.13632813 94.93040039 -253.69140625 94.37939453 C-241.95437277 79.95049793 -228.8014119 66.29523037 -214 55 C-213.04738281 54.23042969 -212.09476562 53.46085937 -211.11328125 52.66796875 C-176.62421825 25.18922972 -135.06258865 8.17840343 -92 0 C-91.06510742 -0.18079102 -90.13021484 -0.36158203 -89.16699219 -0.54785156 C-60.87724803 -5.74308388 -28.21663994 -5.43811606 0 0 Z M-122 50 C-122.79680176 50.28713867 -123.59360352 50.57427734 -124.41455078 50.87011719 C-142.26048893 57.41162414 -159.59560465 65.79476199 -175 77 C-175.96679688 77.69480469 -176.93359375 78.38960937 -177.9296875 79.10546875 C-197.1697551 93.22318069 -215.03484866 109.56507466 -229 129 C-229.44891602 129.61520508 -229.89783203 130.23041016 -230.36035156 130.86425781 C-237.79430863 141.10348169 -244.13882739 151.79404611 -250 163 C-250.60328125 164.12792969 -251.2065625 165.25585938 -251.828125 166.41796875 C-278.86178868 220.29580781 -279.8827931 284.07697029 -261.14160156 340.58837891 C-254.69706215 359.45556917 -245.81765351 377.88940297 -234 394 C-233.30648437 394.96421875 -232.61296875 395.9284375 -231.8984375 396.921875 C-217.7782881 416.18116004 -201.42113658 433.99437266 -182 448 C-180.43765625 449.1446875 -180.43765625 449.1446875 -178.84375 450.3125 C-150.92916972 470.21200277 -118.07133899 484.93028969 -84 490 C-82.33638428 490.25837646 -82.33638428 490.25837646 -80.63916016 490.52197266 C-69.45982225 492.1045261 -58.40562646 492.39955221 -47.125 492.375 C-46.18112427 492.37445618 -45.23724854 492.37391235 -44.26477051 492.37335205 C-28.84554256 492.33262939 -14.0918403 491.40318812 1 488 C1.98790527 487.78037598 2.97581055 487.56075195 3.99365234 487.33447266 C37.27638452 479.72591408 68.35641607 465.48910311 95 444 C95.52303711 443.57847656 96.04607422 443.15695312 96.58496094 442.72265625 C112.71737654 429.60377968 126.9987626 414.9911648 139 398 C139.50869629 397.28763184 140.01739258 396.57526367 140.54150391 395.84130859 C158.6197999 370.33687263 170.1399617 342.43381678 177 312 C177.21027832 311.13729492 177.42055664 310.27458984 177.63720703 309.38574219 C181.12814221 294.77522488 181.39120651 280.25916534 181.4375 265.3125 C181.44376404 264.36630798 181.45002808 263.42011597 181.45648193 262.44525146 C181.63963409 218.64910979 168.67689099 175.28260297 144 139 C143.59958496 138.40429199 143.19916992 137.80858398 142.78662109 137.19482422 C128.53765422 116.1283895 110.64542221 96.88852563 90 82 C88.9584375 81.236875 87.916875 80.47375 86.84375 79.6875 C53.79207427 56.12590938 15.44314254 41.82209918 -25 38 C-26.63582031 37.83371094 -26.63582031 37.83371094 -28.3046875 37.6640625 C-59.89441682 34.80631193 -92.20973638 39.21397831 -122 50 Z " fill="#BF994E" transform="translate(316,5)"/>
<path d="M0 0 C1.08547119 0.24943359 1.08547119 0.24943359 2.19287109 0.50390625 C14.10884372 3.28885549 25.01719694 7.65174227 36 13 C36.65597168 13.31308105 37.31194336 13.62616211 37.98779297 13.94873047 C52.57997434 20.97873062 65.33685356 30.8086637 77 42 C77.94101562 42.87785156 78.88203125 43.75570312 79.8515625 44.66015625 C110.491092 73.77344514 126.53474482 114.15340682 128.11352539 156.00976562 C128.5136305 190.23414135 118.19488181 224.27297308 98 252 C97.61537598 252.53270508 97.23075195 253.06541016 96.83447266 253.61425781 C86.0822356 268.36042859 73.08805289 281.67865741 58 292 C57.4028418 292.40911621 56.80568359 292.81823242 56.19042969 293.23974609 C45.67532979 300.33240152 34.57572598 305.86010368 23 311 C21.91589844 311.48984375 20.83179688 311.9796875 19.71484375 312.484375 C13.0388872 315.35533128 13.0388872 315.35533128 9 314 C10.41136504 310.53439683 11.86281564 309.1916797 15.0625 307.3125 C32.04306769 296.36342996 41.80868392 277.34235731 46 258 C50.16744133 234.06615294 45.1487016 210.74873282 31.44921875 190.734375 C18.13130985 172.55336333 -1.83626595 162.14011866 -23.8203125 158.546875 C-28.07928358 157.93358316 -32.32924829 157.6905119 -36.625 157.5 C-59.97556482 156.45972026 -80.03046019 146.93499267 -96 130 C-108.96694732 115.32117952 -115.57190233 98.17841794 -115.44604492 78.63964844 C-115.43753698 76.63371807 -115.46640194 74.63065121 -115.49804688 72.625 C-115.48728408 50.7980443 -105.41656252 33.73296944 -90.6875 18.3125 C-85.56559039 13.2967073 -80.24675121 9.48464453 -74 6 C-73.21238281 5.53980469 -72.42476562 5.07960938 -71.61328125 4.60546875 C-50.78852577 -6.78790987 -22.5861801 -5.49116032 0 0 Z " fill="#BD984E" transform="translate(304,113)"/>
<path d="M0 0 C-0.165 0.804375 -0.33 1.60875 -0.5 2.4375 C-1.86371824 12.15399244 -0.44914853 18.45672557 4.75 26.8125 C9.7100602 31.63478075 14.70773458 33.08748301 21.5 33.9375 C29.04227596 34.95012038 34.08670268 37.32735512 38.9375 43.25 C41.92690122 47.92157275 42.53674119 52.67467242 41.66015625 58.10546875 C39.91150229 64.01431906 35.97582957 67.57199528 31 71 C22.95618492 74.7756683 15.0367619 72.82984574 7 70 C-4.70975416 64.75849099 -11.72693614 57.05004012 -16.64453125 45.234375 C-18.23703214 40.83874229 -18.49922613 36.77038875 -18.4375 32.125 C-18.43137695 31.33706055 -18.42525391 30.54912109 -18.41894531 29.73730469 C-18.25224176 23.51285062 -17.13018467 18.44803768 -14 13 C-13.401875 11.948125 -12.80375 10.89625 -12.1875 9.8125 C-4.55555556 0 -4.55555556 0 0 0 Z " fill="#F9F9F9" transform="translate(246,320)"/>
</svg>
