<?xml version="1.0" encoding="UTF-8"?>
<!DOCTYPE svg PUBLIC "-//W3C//DTD SVG 1.1//EN" "http://www.w3.org/Graphics/SVG/1.1/DTD/svg11.dtd">
<svg xmlns="http://www.w3.org/2000/svg" version="1.1" width="407px" height="404px" style="shape-rendering:geometricPrecision; text-rendering:geometricPrecision; image-rendering:optimizeQuality; fill-rule:evenodd; clip-rule:evenodd" xmlns:xlink="http://www.w3.org/1999/xlink">
<g><path style="opacity:0.999" fill="#4e9dc4" d="M 176.5,-0.5 C 192.5,-0.5 208.5,-0.5 224.5,-0.5C 265.04,3.93799 301.04,19.1047 332.5,45C 334.706,47.0367 336.706,49.2034 338.5,51.5C 336.189,54.147 333.856,56.8136 331.5,59.5C 301.265,31.7219 265.598,15.2219 224.5,10C 154.375,5.24457 97.0421,29.7446 52.5,83.5C 50.1636,81.7208 47.3303,80.7208 44,80.5C 42.395,81.1007 41.0616,82.1007 40,83.5C 39.6012,83.2716 39.4346,82.9382 39.5,82.5C 73.7182,36.2123 119.385,8.5456 176.5,-0.5 Z"/></g>
<g><path style="opacity:1" fill="#abddec" d="M 331.5,59.5 C 340.809,70.3154 349.976,81.3154 359,92.5C 378.983,120.28 390.15,151.28 392.5,185.5C 392.5,188.833 392.5,192.167 392.5,195.5C 390.5,195.5 388.5,195.5 386.5,195.5C 384.573,173.728 379.573,152.728 371.5,132.5C 350.771,81.9387 314.771,47.1054 263.5,28C 193.067,6.94868 130.733,20.9487 76.5,70C 56.458,89.8805 41.458,113.047 31.5,139.5C 25.1371,156.619 21.1371,174.286 19.5,192.5C 17.7376,192.643 16.0709,192.309 14.5,191.5C 13.52,188.914 13.1866,186.247 13.5,183.5C 15.6129,156.717 23.4463,131.717 37,108.5C 42.6916,100.441 47.8583,92.1079 52.5,83.5C 97.0421,29.7446 154.375,5.24457 224.5,10C 265.598,15.2219 301.265,31.7219 331.5,59.5 Z"/></g>
<g><path style="opacity:1" fill="#7bbdd9" d="M 371.5,132.5 C 369.233,129.729 366.733,127.062 364,124.5C 363.833,125 363.667,125.5 363.5,126C 365.931,135.585 367.931,145.252 369.5,155C 370.109,163.222 366.442,168.222 358.5,170C 342.81,171.893 327.144,173.893 311.5,176C 304.659,176.995 301.326,180.829 301.5,187.5C 299.233,184.729 296.733,182.062 294,179.5C 293.601,179.728 293.435,180.062 293.5,180.5C 290.113,174.066 286.446,167.733 282.5,161.5C 281.232,160.572 279.899,160.405 278.5,161C 276.5,163 274.5,165 272.5,167C 273.252,167.671 273.586,168.504 273.5,169.5C 263.884,171.313 253.884,172.146 243.5,172C 235.945,173.231 228.445,174.731 221,176.5C 219.97,176.164 219.47,175.497 219.5,174.5C 219.98,171.557 220.98,168.89 222.5,166.5C 222.56,167.043 222.893,167.376 223.5,167.5C 232.825,160.764 243.158,158.764 254.5,161.5C 255.309,163.071 255.643,164.738 255.5,166.5C 268.276,164.856 277.443,158.19 283,146.5C 284.156,142.582 284.656,138.582 284.5,134.5C 280.253,134.822 276.253,133.989 272.5,132C 265.678,125.832 259.678,118.999 254.5,111.5C 254.357,109.738 254.691,108.071 255.5,106.5C 260.046,104.395 264.713,102.561 269.5,101C 286.556,99.4284 303.556,97.4284 320.5,95C 324.873,93.2869 328.707,90.7869 332,87.5C 332.706,85.0288 332.373,82.6954 331,80.5C 282.781,28.0595 223.947,10.8929 154.5,29C 127.302,36.1787 103.802,49.6787 84,69.5C 73.5703,81.2597 63.9037,93.5931 55,106.5C 52.6891,110.954 50.5224,115.454 48.5,120C 50.5,120.333 52.5,120.667 54.5,121C 60.1737,126.005 66.8404,128.672 74.5,129C 90.8609,129.526 107.194,129.026 123.5,127.5C 128.013,127.501 132.347,127.834 136.5,128.5C 126.321,141.354 117.321,155.021 109.5,169.5C 105.112,167.403 100.445,166.236 95.5,166C 79.1801,164.827 62.8467,163.827 46.5,163C 42.3993,162.983 39.566,161.15 38,157.5C 37.3333,152.167 37.3333,146.833 38,141.5C 46.1732,118.137 44.6732,117.137 33.5,138.5C 33.0431,139.298 32.3764,139.631 31.5,139.5C 41.458,113.047 56.458,89.8805 76.5,70C 130.733,20.9487 193.067,6.94868 263.5,28C 314.771,47.1054 350.771,81.9387 371.5,132.5 Z"/></g>
<g><path style="opacity:1" fill="#89c6de" d="M 254.5,111.5 C 244.254,98.8925 242.921,85.3925 250.5,71C 246.384,70.8823 242.717,72.2157 239.5,75C 228.6,85.8624 223.933,99.029 225.5,114.5C 210.116,115.689 197.783,122.356 188.5,134.5C 183.587,132.993 178.421,132.326 173,132.5C 166.824,132.754 160.657,133.088 154.5,133.5C 158.14,127.517 161.806,121.517 165.5,115.5C 176.878,99.9479 188.878,84.7813 201.5,70C 202.332,69.3123 202.998,69.479 203.5,70.5C 209.644,78.4781 215.977,86.3114 222.5,94C 223.744,94.4561 224.577,93.9561 225,92.5C 228.082,87.0401 228.082,81.7067 225,76.5C 218.907,70.4105 213.573,63.7438 209,56.5C 206.961,54.1255 204.628,52.1255 202,50.5C 187.784,65.5326 174.95,81.5326 163.5,98.5C 163.565,98.0618 163.399,97.7284 163,97.5C 153.986,107.681 145.153,118.014 136.5,128.5C 132.347,127.834 128.013,127.501 123.5,127.5C 107.194,129.026 90.8609,129.526 74.5,129C 66.8404,128.672 60.1737,126.005 54.5,121C 52.5,120.667 50.5,120.333 48.5,120C 50.5224,115.454 52.6891,110.954 55,106.5C 63.9037,93.5931 73.5703,81.2597 84,69.5C 103.802,49.6787 127.302,36.1787 154.5,29C 223.947,10.8929 282.781,28.0595 331,80.5C 332.373,82.6954 332.706,85.0288 332,87.5C 328.707,90.7869 324.873,93.2869 320.5,95C 303.556,97.4284 286.556,99.4284 269.5,101C 264.713,102.561 260.046,104.395 255.5,106.5C 254.691,108.071 254.357,109.738 254.5,111.5 Z"/></g>
<g><path style="opacity:1" fill="#194463" d="M 165.5,115.5 C 162.948,113.057 159.948,111.39 156.5,110.5C 159.659,107.002 161.992,103.002 163.5,98.5C 174.95,81.5326 187.784,65.5326 202,50.5C 204.628,52.1255 206.961,54.1255 209,56.5C 213.573,63.7438 218.907,70.4105 225,76.5C 228.082,81.7067 228.082,87.0401 225,92.5C 224.577,93.9561 223.744,94.4561 222.5,94C 215.977,86.3114 209.644,78.4781 203.5,70.5C 202.998,69.479 202.332,69.3123 201.5,70C 188.878,84.7813 176.878,99.9479 165.5,115.5 Z"/></g>
<g><path style="opacity:1" fill="#a7d7e7" d="M 254.5,111.5 C 259.678,118.999 265.678,125.832 272.5,132C 276.253,133.989 280.253,134.822 284.5,134.5C 284.656,138.582 284.156,142.582 283,146.5C 277.443,158.19 268.276,164.856 255.5,166.5C 255.643,164.738 255.309,163.071 254.5,161.5C 243.158,158.764 232.825,160.764 223.5,167.5C 222.893,167.376 222.56,167.043 222.5,166.5C 230.106,155.012 240.773,150.845 254.5,154C 256.976,155.309 258.976,157.142 260.5,159.5C 267.059,156.77 272.226,152.437 276,146.5C 276.977,144.26 277.477,141.927 277.5,139.5C 268.813,138.652 262.146,134.485 257.5,127C 246.133,119.492 233.799,117.492 220.5,121C 212.736,122.88 205.403,125.88 198.5,130C 202.023,128.918 205.69,128.585 209.5,129C 205.398,132.046 201.065,134.546 196.5,136.5C 192.407,137.713 188.741,139.713 185.5,142.5C 185.167,142.333 184.833,142.167 184.5,142C 185.973,139.552 187.307,137.052 188.5,134.5C 197.783,122.356 210.116,115.689 225.5,114.5C 223.933,99.029 228.6,85.8624 239.5,75C 242.717,72.2157 246.384,70.8823 250.5,71C 242.921,85.3925 244.254,98.8925 254.5,111.5 Z"/></g>
<g><path style="opacity:1" fill="#143958" d="M 240.5,78.5 C 241.586,78.62 242.253,79.2867 242.5,80.5C 240.247,92.5718 242.247,103.905 248.5,114.5C 243.111,115.841 237.778,115.675 232.5,114C 232,113.5 231.5,113 231,112.5C 230.501,108.514 230.334,104.514 230.5,100.5C 231.5,100.5 232.5,100.5 233.5,100.5C 232.636,92.0926 234.97,84.7592 240.5,78.5 Z"/></g>
<g><path style="opacity:1" fill="#aadae9" d="M 163.5,98.5 C 161.992,103.002 159.659,107.002 156.5,110.5C 140.753,130.968 127.253,152.968 116,176.5C 101.639,209.072 102.139,241.405 117.5,273.5C 113.057,274.801 108.391,275.468 103.5,275.5C 91.574,248.006 90.4074,220.006 100,191.5C 102.906,184.024 106.073,176.691 109.5,169.5C 117.321,155.021 126.321,141.354 136.5,128.5C 145.153,118.014 153.986,107.681 163,97.5C 163.399,97.7284 163.565,98.0618 163.5,98.5 Z"/></g>
<g><path style="opacity:1" fill="#0b3152" d="M 156.5,110.5 C 159.948,111.39 162.948,113.057 165.5,115.5C 161.806,121.517 158.14,127.517 154.5,133.5C 151.586,134.906 149.086,136.906 147,139.5C 141.217,150.068 135.717,160.735 130.5,171.5C 116.881,192.186 112.381,214.853 117,239.5C 118.594,247.347 120.761,255.014 123.5,262.5C 141.229,295.373 168.896,311.206 206.5,310C 216.829,308.723 226.496,305.557 235.5,300.5C 236.524,299.148 237.524,297.815 238.5,296.5C 246.173,292.654 251.673,286.654 255,278.5C 260.808,263.734 259.475,249.734 251,236.5C 247.869,232.367 244.369,228.534 240.5,225C 230.008,217.251 219.008,210.251 207.5,204C 195.871,195.906 188.537,185.072 185.5,171.5C 185.364,158.576 189.031,146.91 196.5,136.5C 201.065,134.546 205.398,132.046 209.5,129C 205.69,128.585 202.023,128.918 198.5,130C 205.403,125.88 212.736,122.88 220.5,121C 233.799,117.492 246.133,119.492 257.5,127C 262.146,134.485 268.813,138.652 277.5,139.5C 277.477,141.927 276.977,144.26 276,146.5C 272.226,152.437 267.059,156.77 260.5,159.5C 258.976,157.142 256.976,155.309 254.5,154C 240.773,150.845 230.106,155.012 222.5,166.5C 220.98,168.89 219.98,171.557 219.5,174.5C 216.428,181.736 217.428,188.569 222.5,195C 204.218,188.294 196.885,175.127 200.5,155.5C 200.267,154.068 199.6,153.568 198.5,154C 191.172,174.665 197.505,189.665 217.5,199C 230.167,203.667 242.833,208.333 255.5,213C 278.305,222.989 289.639,240.489 289.5,265.5C 288.35,268.725 287.184,272.058 286,275.5C 285.667,267.5 285.333,259.5 285,251.5C 283.497,246.481 280.997,242.148 277.5,238.5C 273.401,231.233 267.734,225.4 260.5,221C 251.76,215.81 242.427,212.31 232.5,210.5C 231.167,211.167 231.167,211.833 232.5,212.5C 248.016,218.364 261.349,227.364 272.5,239.5C 285.043,264.376 281.376,286.543 261.5,306C 253.018,312.074 243.685,316.241 233.5,318.5C 198.071,325.805 166.071,318.639 137.5,297C 130.219,289.563 123.552,281.73 117.5,273.5C 102.139,241.405 101.639,209.072 116,176.5C 127.253,152.968 140.753,130.968 156.5,110.5 Z"/></g>
<g><path style="opacity:1" fill="#3a8dbb" d="M 338.5,51.5 C 344.359,54.8464 349.526,59.1797 354,64.5C 377.366,91.8954 393.366,123.229 402,158.5C 404.154,169.063 405.32,179.73 405.5,190.5C 402.169,192.298 398.502,192.964 394.5,192.5C 394.815,196.371 394.482,200.038 393.5,203.5C 393.823,197.31 393.49,191.31 392.5,185.5C 390.15,151.28 378.983,120.28 359,92.5C 349.976,81.3154 340.809,70.3154 331.5,59.5C 333.856,56.8136 336.189,54.147 338.5,51.5 Z"/></g>
<g><path style="opacity:1" fill="#65afd0" d="M 109.5,169.5 C 106.073,176.691 102.906,184.024 100,191.5C 90.4074,220.006 91.574,248.006 103.5,275.5C 104.123,277.711 105.123,279.711 106.5,281.5C 98.3152,283.921 89.9818,285.754 81.5,287C 66.783,289.935 54.283,286.102 44,275.5C 37.8084,267.12 32.6417,258.12 28.5,248.5C 27.5481,250.045 27.2148,251.712 27.5,253.5C 24.2647,244.888 22.098,235.888 21,226.5C 18.9746,215.153 18.4746,203.82 19.5,192.5C 21.1371,174.286 25.1371,156.619 31.5,139.5C 32.3764,139.631 33.0431,139.298 33.5,138.5C 44.6732,117.137 46.1732,118.137 38,141.5C 37.3333,146.833 37.3333,152.167 38,157.5C 39.566,161.15 42.3993,162.983 46.5,163C 62.8467,163.827 79.1801,164.827 95.5,166C 100.445,166.236 105.112,167.403 109.5,169.5 Z"/></g>
<g><path style="opacity:1" fill="#65afd0" d="M 371.5,132.5 C 379.573,152.728 384.573,173.728 386.5,195.5C 387.185,214.682 384.852,233.349 379.5,251.5C 379.631,250.761 379.464,250.094 379,249.5C 374.519,258.461 369.519,267.128 364,275.5C 356.21,283.645 346.71,288.478 335.5,290C 317.08,289.719 299.08,292.219 281.5,297.5C 309.774,269.183 318.274,235.849 307,197.5C 304.938,194.277 303.104,190.943 301.5,187.5C 301.326,180.829 304.659,176.995 311.5,176C 327.144,173.893 342.81,171.893 358.5,170C 366.442,168.222 370.109,163.222 369.5,155C 367.931,145.252 365.931,135.585 363.5,126C 363.667,125.5 363.833,125 364,124.5C 366.733,127.062 369.233,129.729 371.5,132.5 Z"/></g>
<g><path style="opacity:0.999" fill="#398cba" d="M 52.5,83.5 C 47.8583,92.1079 42.6916,100.441 37,108.5C 23.4463,131.717 15.6129,156.717 13.5,183.5C 12.7789,192.018 12.1122,200.684 11.5,209.5C 11.685,210.584 12.0183,211.584 12.5,212.5C 8.83333,212.5 5.16667,212.5 1.5,212.5C 1.5,216.5 1.5,220.5 1.5,224.5C 0.833333,220.833 0.166667,217.167 -0.5,213.5C -0.5,205.5 -0.5,197.5 -0.5,189.5C 2.1999,159.718 10.3666,131.385 24,104.5C 28.6409,96.7095 33.8076,89.3762 39.5,82.5C 39.4346,82.9382 39.6012,83.2716 40,83.5C 41.0616,82.1007 42.395,81.1007 44,80.5C 47.3303,80.7208 50.1636,81.7208 52.5,83.5 Z"/></g>
<g><path style="opacity:1" fill="#96c3d4" d="M 239.5,130.5 C 245.583,130.124 250.749,132.124 255,136.5C 255.49,137.793 255.657,139.127 255.5,140.5C 246.902,142.208 241.568,138.875 239.5,130.5 Z"/></g>
<g><path style="opacity:1" fill="#79bbd7" d="M 188.5,134.5 C 187.307,137.052 185.973,139.552 184.5,142C 184.833,142.167 185.167,142.333 185.5,142.5C 188.741,139.713 192.407,137.713 196.5,136.5C 189.031,146.91 185.364,158.576 185.5,171.5C 167.039,172.813 148.706,172.813 130.5,171.5C 135.717,160.735 141.217,150.068 147,139.5C 149.086,136.906 151.586,134.906 154.5,133.5C 160.657,133.088 166.824,132.754 173,132.5C 178.421,132.326 183.587,132.993 188.5,134.5 Z"/></g>
<g><path style="opacity:1" fill="#0c3253" d="M 293.5,180.5 C 297.559,190.178 300.725,200.178 303,210.5C 304.643,226.173 303.143,241.507 298.5,256.5C 297.883,256.611 297.383,256.944 297,257.5C 296.523,251.1 294.856,245.1 292,239.5C 293.462,214.069 287.296,190.736 273.5,169.5C 273.586,168.504 273.252,167.671 272.5,167C 274.5,165 276.5,163 278.5,161C 279.899,160.405 281.232,160.572 282.5,161.5C 286.446,167.733 290.113,174.066 293.5,180.5 Z"/></g>
<g><path style="opacity:1" fill="#67afcf" d="M 219.5,174.5 C 219.47,175.497 219.97,176.164 221,176.5C 228.445,174.731 235.945,173.231 243.5,172C 253.884,172.146 263.884,171.313 273.5,169.5C 287.296,190.736 293.462,214.069 292,239.5C 294.856,245.1 296.523,251.1 297,257.5C 297.383,256.944 297.883,256.611 298.5,256.5C 296.679,258.857 294.345,259.191 291.5,257.5C 290.832,260.306 290.166,262.972 289.5,265.5C 289.639,240.489 278.305,222.989 255.5,213C 242.833,208.333 230.167,203.667 217.5,199C 197.505,189.665 191.172,174.665 198.5,154C 199.6,153.568 200.267,154.068 200.5,155.5C 196.885,175.127 204.218,188.294 222.5,195C 217.428,188.569 216.428,181.736 219.5,174.5 Z"/></g>
<g><path style="opacity:1" fill="#62accd" d="M 130.5,171.5 C 148.706,172.813 167.039,172.813 185.5,171.5C 188.537,185.072 195.871,195.906 207.5,204C 219.008,210.251 230.008,217.251 240.5,225C 244.369,228.534 247.869,232.367 251,236.5C 259.475,249.734 260.808,263.734 255,278.5C 251.673,286.654 246.173,292.654 238.5,296.5C 236.672,295.717 235.339,294.384 234.5,292.5C 239.108,287.455 243.108,281.955 246.5,276C 246.167,275.5 245.833,275 245.5,274.5C 233.919,286.291 219.919,293.291 203.5,295.5C 198.706,296.097 194.373,295.43 190.5,293.5C 194.729,292.897 198.729,291.397 202.5,289C 188.505,289.5 175.171,286.833 162.5,281C 147.858,271.575 143.525,258.741 149.5,242.5C 156.708,241.868 163.374,239.701 169.5,236C 173.921,227.954 178.921,220.454 184.5,213.5C 181.276,213.203 178.276,213.87 175.5,215.5C 174.67,209.528 174.17,203.528 174,197.5C 167.239,184.854 164.572,185.854 166,200.5C 165.275,202.949 164.275,205.283 163,207.5C 158,211.167 153.667,215.5 150,220.5C 149.667,218.5 149.333,216.5 149,214.5C 142.123,221.958 139.623,230.624 141.5,240.5C 145.56,232.595 151.56,227.095 159.5,224C 148.943,231.946 142.61,242.446 140.5,255.5C 135.425,259.194 129.759,261.527 123.5,262.5C 120.761,255.014 118.594,247.347 117,239.5C 112.381,214.853 116.881,192.186 130.5,171.5 Z"/></g>
<g><path style="opacity:1" fill="#a7d7e7" d="M 301.5,187.5 C 303.104,190.943 304.938,194.277 307,197.5C 318.274,235.849 309.774,269.183 281.5,297.5C 275.225,301.981 268.892,306.481 262.5,311C 255.757,315.038 248.757,318.538 241.5,321.5C 238.833,321.5 236.167,321.5 233.5,321.5C 233.5,320.5 233.5,319.5 233.5,318.5C 243.685,316.241 253.018,312.074 261.5,306C 281.376,286.543 285.043,264.376 272.5,239.5C 274.415,239.784 276.081,239.451 277.5,238.5C 280.997,242.148 283.497,246.481 285,251.5C 285.333,259.5 285.667,267.5 286,275.5C 287.184,272.058 288.35,268.725 289.5,265.5C 290.166,262.972 290.832,260.306 291.5,257.5C 294.345,259.191 296.679,258.857 298.5,256.5C 303.143,241.507 304.643,226.173 303,210.5C 300.725,200.178 297.559,190.178 293.5,180.5C 293.435,180.062 293.601,179.728 294,179.5C 296.733,182.062 299.233,184.729 301.5,187.5 Z"/></g>
<g><path style="opacity:1" fill="#95cfe3" d="M 13.5,183.5 C 13.1866,186.247 13.52,188.914 14.5,191.5C 16.0709,192.309 17.7376,192.643 19.5,192.5C 18.4746,203.82 18.9746,215.153 21,226.5C 22.098,235.888 24.2647,244.888 27.5,253.5C 39.3412,293.696 62.3412,325.863 96.5,350C 158.756,391.346 223.423,395.346 290.5,362C 326.604,342.229 353.437,313.729 371,276.5C 374.54,268.381 377.373,260.048 379.5,251.5C 384.852,233.349 387.185,214.682 386.5,195.5C 388.5,195.5 390.5,195.5 392.5,195.5C 392.5,192.167 392.5,188.833 392.5,185.5C 393.49,191.31 393.823,197.31 393.5,203.5C 392.319,240.232 382.152,274.232 363,305.5C 355.618,314.709 348.451,324.043 341.5,333.5C 291.069,382.287 231.069,400.454 161.5,388C 122.375,377.954 89.042,358.454 61.5,329.5C 54.0975,319.706 46.9309,309.706 40,299.5C 24.5209,272.53 15.3542,243.53 12.5,212.5C 12.0183,211.584 11.685,210.584 11.5,209.5C 12.1122,200.684 12.7789,192.018 13.5,183.5 Z"/></g>
<g><path style="opacity:1" fill="#0b3354" d="M 190.5,293.5 C 175.812,295.559 162.478,292.392 150.5,284C 142.71,276.133 139.377,266.633 140.5,255.5C 142.61,242.446 148.943,231.946 159.5,224C 151.56,227.095 145.56,232.595 141.5,240.5C 139.623,230.624 142.123,221.958 149,214.5C 149.333,216.5 149.667,218.5 150,220.5C 153.667,215.5 158,211.167 163,207.5C 164.275,205.283 165.275,202.949 166,200.5C 164.572,185.854 167.239,184.854 174,197.5C 174.17,203.528 174.67,209.528 175.5,215.5C 178.276,213.87 181.276,213.203 184.5,213.5C 178.921,220.454 173.921,227.954 169.5,236C 163.374,239.701 156.708,241.868 149.5,242.5C 143.525,258.741 147.858,271.575 162.5,281C 175.171,286.833 188.505,289.5 202.5,289C 198.729,291.397 194.729,292.897 190.5,293.5 Z"/></g>
<g><path style="opacity:1" fill="#2b6c9a" d="M 405.5,190.5 C 405.328,191.492 405.662,192.158 406.5,192.5C 406.5,199.833 406.5,207.167 406.5,214.5C 403.098,260.955 385.765,301.288 354.5,335.5C 350.369,333.817 346.036,333.15 341.5,333.5C 348.451,324.043 355.618,314.709 363,305.5C 382.152,274.232 392.319,240.232 393.5,203.5C 394.482,200.038 394.815,196.371 394.5,192.5C 398.502,192.964 402.169,192.298 405.5,190.5 Z"/></g>
<g><path style="opacity:0.997" fill="#2a6d9a" d="M 12.5,212.5 C 15.3542,243.53 24.5209,272.53 40,299.5C 46.9309,309.706 54.0975,319.706 61.5,329.5C 58.8818,330.945 56.3818,332.611 54,334.5C 53.805,335.819 53.9717,337.153 54.5,338.5C 23.9314,306.686 6.26472,268.686 1.5,224.5C 1.5,220.5 1.5,216.5 1.5,212.5C 5.16667,212.5 8.83333,212.5 12.5,212.5 Z"/></g>
<g><path style="opacity:1" fill="#6ca9c4" d="M 277.5,238.5 C 276.081,239.451 274.415,239.784 272.5,239.5C 261.349,227.364 248.016,218.364 232.5,212.5C 231.167,211.833 231.167,211.167 232.5,210.5C 242.427,212.31 251.76,215.81 260.5,221C 267.734,225.4 273.401,231.233 277.5,238.5 Z"/></g>
<g><path style="opacity:1" fill="#4c9dc5" d="M 106.5,281.5 C 125.479,310.567 152.479,326.734 187.5,330C 199.199,330.768 210.865,330.435 222.5,329C 229.21,327.158 235.544,324.658 241.5,321.5C 248.757,318.538 255.757,315.038 262.5,311C 268.892,306.481 275.225,301.981 281.5,297.5C 299.08,292.219 317.08,289.719 335.5,290C 346.71,288.478 356.21,283.645 364,275.5C 369.519,267.128 374.519,258.461 379,249.5C 379.464,250.094 379.631,250.761 379.5,251.5C 377.373,260.048 374.54,268.381 371,276.5C 353.437,313.729 326.604,342.229 290.5,362C 223.423,395.346 158.756,391.346 96.5,350C 62.3412,325.863 39.3412,293.696 27.5,253.5C 27.2148,251.712 27.5481,250.045 28.5,248.5C 32.6417,258.12 37.8084,267.12 44,275.5C 54.283,286.102 66.783,289.935 81.5,287C 89.9818,285.754 98.3152,283.921 106.5,281.5 Z"/></g>
<g><path style="opacity:1" fill="#4695bc" d="M 140.5,255.5 C 139.377,266.633 142.71,276.133 150.5,284C 162.478,292.392 175.812,295.559 190.5,293.5C 194.373,295.43 198.706,296.097 203.5,295.5C 197.9,296.943 192.067,297.61 186,297.5C 181.129,297.204 176.296,297.037 171.5,297C 175.935,300.368 180.935,302.368 186.5,303C 204.024,305.931 220.024,302.431 234.5,292.5C 235.339,294.384 236.672,295.717 238.5,296.5C 237.524,297.815 236.524,299.148 235.5,300.5C 226.496,305.557 216.829,308.723 206.5,310C 168.896,311.206 141.229,295.373 123.5,262.5C 129.759,261.527 135.425,259.194 140.5,255.5 Z"/></g>
<g><path style="opacity:1" fill="#96cfe2" d="M 117.5,273.5 C 123.552,281.73 130.219,289.563 137.5,297C 166.071,318.639 198.071,325.805 233.5,318.5C 233.5,319.5 233.5,320.5 233.5,321.5C 236.167,321.5 238.833,321.5 241.5,321.5C 235.544,324.658 229.21,327.158 222.5,329C 210.865,330.435 199.199,330.768 187.5,330C 152.479,326.734 125.479,310.567 106.5,281.5C 105.123,279.711 104.123,277.711 103.5,275.5C 108.391,275.468 113.057,274.801 117.5,273.5 Z"/></g>
<g><path style="opacity:1" fill="#0e3758" d="M 234.5,292.5 C 220.024,302.431 204.024,305.931 186.5,303C 180.935,302.368 175.935,300.368 171.5,297C 176.296,297.037 181.129,297.204 186,297.5C 192.067,297.61 197.9,296.943 203.5,295.5C 219.919,293.291 233.919,286.291 245.5,274.5C 245.833,275 246.167,275.5 246.5,276C 243.108,281.955 239.108,287.455 234.5,292.5 Z"/></g>
<g><path style="opacity:1" fill="#1f6293" d="M 61.5,329.5 C 89.042,358.454 122.375,377.954 161.5,388C 231.069,400.454 291.069,382.287 341.5,333.5C 346.036,333.15 350.369,333.817 354.5,335.5C 318.764,374.035 274.764,396.702 222.5,403.5C 210.167,403.5 197.833,403.5 185.5,403.5C 133.917,397.541 90.2499,375.875 54.5,338.5C 53.9717,337.153 53.805,335.819 54,334.5C 56.3818,332.611 58.8818,330.945 61.5,329.5 Z"/></g>
</svg>
