<svg width="717" height="710" xmlns="http://www.w3.org/2000/svg" version="1.1">

 <g>
  <title>Layer 1</title>
  <path id="svg_3" fill="#7BBDD9" d="m356.02104,153.14363c1.35355,0.00174 1.35355,0.00174 2.73444,0.00351c17.97671,0.04561 34.99632,1.33158 52.32806,6.30899c0.82419,0.22696 1.64839,0.45391 2.49756,0.68774c21.89438,6.09687 43.30012,15.57262 61.50244,29.31226c0.57959,0.4299 1.15919,0.8598 1.75635,1.30273c8.94577,6.66978 17.17689,13.99871 25.24365,21.69727c0.65355,0.6007 1.30711,1.20141 1.98047,1.82031c6.06682,5.73538 10.97247,12.55944 16.01953,19.17969c0.70383,0.90879 1.40766,1.81758 2.13281,2.75391c9.80309,12.99801 17.36313,27.36552 23.86719,42.24609c0.69029,1.55848 0.69029,1.55848 1.39453,3.14844c8.49716,20.55503 12.88,43.66977 13.60547,65.85156c0.02723,0.72848 0.05446,1.45696 0.08252,2.20752c1.52663,45.76997 -13.17875,93.68324 -43.08252,128.79248c-0.81984,1.00289 -1.63969,2.00578 -2.48437,3.03906c-18.71213,22.77804 -41.35022,40.45453 -67.51563,53.96094c-0.69029,0.36078 -1.38059,0.72155 -2.0918,1.09326c-43.8585,22.67138 -98.05385,26.1099 -145.0332,11.59424c-2.63941,-0.85672 -5.2591,-1.76171 -7.875,-2.6875c-0.70302,-0.24589 -1.40604,-0.49178 -2.13037,-0.74512c-28.37146,-10.06545 -53.1958,-26.5285 -74.86963,-47.25488c-0.92684,-0.87398 -1.85367,-1.74797 -2.80859,-2.64844c-7.15343,-6.92005 -13.31613,-14.34456 -19.19141,-22.35156c-0.41073,-0.55575 -0.82146,-1.11149 -1.24463,-1.68408c-29.98753,-41.14681 -42.36871,-93.64449 -35.23413,-143.92066c4.93876,-30.97257 15.9532,-60.91332 34.47876,-86.39526c0.6832,-0.9552 1.36641,-1.91039 2.07031,-2.89453c11.03935,-15.09502 23.25708,-28.47995 37.92969,-40.10547c0.95391,-0.78246 1.90781,-1.56492 2.89062,-2.37109c25.04831,-20.07076 55.5368,-33.86291 87.10938,-39.62891c1.44379,-0.26599 1.44379,-0.26599 2.91675,-0.53735c10.34684,-1.6989 20.55825,-1.81665 31.02075,-1.77515z"/>
  <path id="svg_5" fill="#8AC7DF" d="m456.08354,206.45613c0.78383,0.56823 0.78383,0.56823 1.5835,1.14795c7.60856,5.54537 14.48997,11.65213 21.1665,18.28955c0.6919,0.68643 1.38381,1.37285 2.09668,2.08008c5.54415,5.62466 5.54415,5.62466 7.15332,9.48242c-0.06641,2.02344 -0.06641,2.02344 -1,4c-2.15234,1.85156 -2.15234,1.85156 -4.9375,3.625c-0.8959,0.59039 -1.7918,1.18078 -2.71484,1.78906c-9.83419,4.65891 -21.53726,4.38989 -32.23902,5.18775c-18.77079,1.03713 -18.77079,1.03713 -36.10864,7.39819c-1.43808,2.77141 -1.43808,2.77141 -1,6c1.63545,2.46815 3.12562,4.3744 5.125,6.5c0.98192,1.09362 1.96369,2.18737 2.94531,3.28125c0.48864,0.53085 0.97727,1.0617 1.48072,1.60864c1.43536,1.59499 2.79052,3.23549 4.14038,4.90308c4.58479,5.37607 9.61329,6.12985 16.30859,6.70703c0.68448,8.04266 -2.17002,14.0773 -7.25,20.25c-4.93902,5.30918 -10.67467,8.98117 -17.75,10.75c-1.32,0 -2.64,0 -4,0c-0.33,-1.65 -0.66,-3.3 -1,-5c-9.6475,-1.64213 -17.10609,-1.60244 -26,3c-1.7075,1.28062 -3.39372,2.5945 -5,4c-0.66,0 -1.32,0 -2,0c2.89258,-6.48384 8.79663,-10.65017 15.26562,-13.30469c5.73689,-1.45881 11.90045,-1.59284 17.73438,-0.69531c2.95312,1.90625 2.95312,1.90625 5,4c0,0.66 0,1.32 0,2c8.44618,-4.17132 14.31427,-7.30196 17.8125,-16.375c0.39187,-1.19625 0.78375,-2.3925 1.1875,-3.625c-0.66387,-0.09797 -1.32773,-0.19594 -2.01172,-0.29687c-6.4959,-1.10004 -10.24819,-2.39048 -14.55859,-7.60157c-5.82875,-7.03108 -12.19403,-10.93993 -21.42969,-12.10156c-14.62088,-0.8942 -26.11011,1.63009 -39.06641,8.47656c-2.93359,1.52344 -2.93359,1.52344 -5.93359,2.52344c3.82233,0.25304 3.82233,0.25304 6.4375,-1c2.72089,-1.06181 4.67137,-1.16521 7.5625,-1c-2.12161,2.12161 -3.77332,2.92986 -6.5,4.125c-0.79406,0.3532 -1.58813,0.70641 -2.40625,1.07031c-2.09375,0.80469 -2.09375,0.80469 -4.09375,0.80469c-0.26812,0.54012 -0.53625,1.08023 -0.8125,1.63672c-0.86281,1.71711 -1.73971,3.42718 -2.625,5.13281c-6.14511,11.9676 -8.89733,23.60721 -5.39063,37.00781c6.30917,16.93355 18.9862,25.10721 33.95313,33.78516c16.10687,9.3649 30.26771,19.89084 36.51172,38.31641c2.26217,13.20813 -0.18838,25.00377 -7.91016,35.97265c-2.95346,3.67513 -6.28048,6.93851 -9.72656,10.14844c-1.98,-0.66 -3.96,-1.32 -6,-2c0,-4.51424 0.28403,-4.73418 3.25,-7.75c3.54874,-3.82948 5.6274,-7.49538 7.75,-12.25c-0.42668,0.48469 -0.85336,0.96938 -1.29297,1.46875c-10.4509,11.20509 -24.53692,18.27337 -39.70703,20.53125c-2.43667,0.06702 -4.87502,0.08528 -7.3125,0.0625c-1.25426,-0.00902 -2.50852,-0.01805 -3.80078,-0.02734c-1.42893,-0.01741 -1.42893,-0.01741 -2.88672,-0.03516c-0.33,-1.32 -0.66,-2.64 -1,-4c4.95,-1.485 4.95,-1.485 10,-3c-1.02738,-0.03738 -2.05477,-0.07477 -3.11328,-0.11328c-15.58643,-0.6885 -32.41214,-3.93738 -43.67969,-15.76953c-5.23316,-6.58991 -7.93747,-13.16676 -7.51953,-21.65625c0.54428,-4.2862 0.99448,-7.46985 4.3125,-10.46094c3.7778,-1.38244 7.32401,-2.23999 11.27344,-3.01562c4.57968,-1.20973 8.11203,-2.65851 10.89355,-6.66553c1.08843,-1.92949 2.06942,-3.88078 3.02051,-5.88135c4.19912,-8.5708 4.19912,-8.5708 6.8125,-10.4375c0.99,0 1.98,0 3,0c0,-0.66 0,-1.32 0,-2c-3.63,0.99 -7.26,1.98 -11,3c0.04641,-1.20656 0.09281,-2.41313 0.14062,-3.65625c0.03755,-1.61456 0.07395,-3.22914 0.10938,-4.84375c0.03352,-0.79148 0.06703,-1.58297 0.10156,-2.39844c0.09523,-5.80891 -0.97603,-10.28825 -4.35156,-15.10156c-0.66,-0.33 -1.32,-0.66 -2,-1c0.0348,0.65227 0.06961,1.30453 0.10547,1.97656c0.21744,7.02012 -0.57627,11.22081 -5.41797,16.58594c-1.87131,1.69723 -3.79294,3.3399 -5.75,4.9375c-2.72608,2.32007 -4.80983,4.63583 -6.9375,7.5c0,-1.98 0,-3.96 0,-6c-5.81173,7.22539 -8.6083,14.67274 -8,24c0.4009,-0.56848 0.8018,-1.13695 1.21484,-1.72266c4.72378,-6.41619 10.51681,-13.78418 18.78516,-15.27734c-0.66,0.63938 -1.32,1.27875 -2,1.9375c-1.00475,1.01616 -2.004,2.03777 -3,3.0625c-0.95906,0.98227 -0.95906,0.98227 -1.9375,1.98438c-6.28656,6.71518 -10.24527,13.35662 -12.375,22.32812c-1.04701,3.72597 -2.08212,5.5148 -5.3125,7.6875c-4.26281,2.24233 -8.65746,3.21291 -13.375,4c-9.47306,-24.87423 -12.11327,-51.72544 -1.03125,-76.69531c11.79318,-25.3529 26.57582,-48.74457 43.03125,-71.30469c0.55929,-0.77038 1.11858,-1.54075 1.69482,-2.33447c7.12156,-9.7973 14.38445,-19.46031 21.93018,-28.93457c2.53479,-3.19099 5.04684,-6.39988 7.5625,-9.60596c0.9309,-1.18497 1.86188,-2.36987 2.79297,-3.55469c0.66644,-0.8482 1.33289,-1.6964 2.01953,-2.57031c4.58698,4.30792 8.31532,9.1283 12.125,14.125c1.22984,1.60825 2.46154,3.21508 3.69531,4.82031c0.53899,0.70657 1.07798,1.41314 1.6333,2.14112c1.42456,1.76281 2.91117,3.34708 4.54639,4.91357c0.53604,-1.39007 1.05317,-2.78743 1.5625,-4.1875c0.29004,-0.7773 0.58008,-1.55461 0.87891,-2.35547c0.69226,-3.04498 0.60259,-4.49611 -0.44141,-7.45703c-1.64037,-2.48017 -3.52264,-4.72824 -5.4375,-7c-1.08836,-1.3233 -2.17558,-2.64753 -3.26172,-3.97266c-0.82443,-0.99991 -0.82443,-0.99991 -1.66553,-2.02002c-2.52524,-3.09981 -4.95898,-6.26731 -7.38525,-9.44482c-0.42982,-0.56139 -0.85964,-1.12277 -1.30249,-1.70117c-0.98386,-1.28607 -1.96591,-2.57353 -2.94751,-3.86133c-3.06958,1.34235 -4.88739,2.72424 -6.99609,5.31641c-0.5518,0.67281 -1.1036,1.34562 -1.67212,2.03881c-0.8758,1.09261 -0.8758,1.09261 -1.76929,2.20728c-0.61545,0.75869 -1.23089,1.51739 -1.86499,2.29907c-9.87972,12.24317 -19.28805,24.81584 -28.4436,37.60718c-2.15875,3.01589 -4.3385,6.01449 -6.53907,9c-27.53886,37.45876 -56.86336,81.48863 -49.52734,130.03125c2.94804,17.85999 9.63503,33.92405 21.8125,47.5c0.81211,0.90621 1.62422,1.81242 2.46094,2.74609c15.55273,16.44212 37.11689,26.63393 59.53906,29.25391c0.92812,0.11086 1.85625,0.22172 2.8125,0.33594c23.21959,2.33458 48.35984,0.23828 67.66016,-14.1836c9.61676,-8.07551 17.49376,-20.3926 18.72021,-33.16015c0.40635,-10.6784 0.29581,-19.47367 -5.19287,-28.99219c-0.46922,-0.81855 -0.93844,-1.63711 -1.42188,-2.48047c-9.61931,-15.43744 -25.57712,-22.31429 -41.57812,-29.51953c6.48595,-2.16198 15.40267,2.82626 21.49219,5.57813c14.24925,7.31256 24.85771,16.81627 31.00781,31.85937c2.69206,8.82005 1.83314,18.44484 1.5,27.5625c2.70533,-6.73188 4.52433,-12.74601 5,-20c2.16874,0.50604 3.99968,0.99984 6,2c8.14525,-23.44726 8.51686,-49.40463 -2.3125,-72.1875c-0.34676,-0.65355 -0.69352,-1.30711 -1.05078,-1.98047c-0.7975,-2.29465 -0.41386,-3.57082 0.36328,-5.83203c12.96789,12.41606 18.74234,28.65055 19.34717,46.38892c0.32789,25.60704 -10.78624,50.28433 -28.34717,68.61108c-3.51811,3.21685 -7.19112,6.13663 -11,9c-0.86238,0.67676 -1.72477,1.35352 -2.61328,2.05078c-7.32987,5.59242 -15.16522,9.84648 -23.38672,13.94922c-0.96035,0.48598 -1.9207,0.97195 -2.91016,1.47266c-27.52452,13.25555 -59.05124,12.21667 -87.44946,2.48681c-23.81467,-8.66995 -42.90782,-24.99707 -53.99194,-47.91626c-11.57237,-25.14133 -12.95646,-51.68351 -4.64844,-78.04321c0.25701,-0.81694 0.51401,-1.63389 0.77881,-2.47559c7.38342,-22.78029 20.22423,-42.04605 34.18774,-61.28686c2.19188,-3.0094 2.19188,-3.0094 4.03345,-6.23755c-4.29186,0.14047 -8.58343,0.28836 -12.875,0.4375c-1.20398,0.03932 -2.40797,0.07863 -3.64844,0.11914c-5.24991,0.18546 -10.4642,0.39324 -15.6875,0.9668c-14.67539,1.6001 -34.5463,2.9616 -47.78906,-4.52344c-0.70125,-0.7425 -1.4025,-1.485 -2.125,-2.25c-0.61875,-0.5775 -1.2375,-1.155 -1.875,-1.75c-2.70706,0.14025 -2.70706,0.14025 -5,1c3.94168,-13.02126 12.419,-23.70339 21,-34c0.47937,-0.57702 0.95874,-1.15403 1.45264,-1.74854c2.3375,-2.80515 4.69271,-5.59335 7.0747,-8.36083c1.43417,-1.6766 2.85241,-3.36764 4.22657,-5.09375c24.01794,-29.61612 68.67984,-45.2073 105.37109,-49.04688c40.71425,-3.76802 79.77177,5.67121 112.875,30.25z"/>
  <path id="svg_12" fill="#4C9DC5" d="m535.08354,399.45613c1.43746,4.52525 0.02004,7.91899 -1.5,12.25c-0.27554,0.79849 -0.55107,1.59699 -0.83496,2.41968c-15.42357,43.82878 -47.1345,81.05936 -88.66504,102.33032c-0.71237,0.36577 -1.42474,0.73154 -2.15869,1.1084c-16.96208,8.59815 -34.17166,14.35065 -52.84131,17.8916c-1.13695,0.22688 -2.27391,0.45375 -3.44531,0.6875c-45.00352,7.51799 -93.8956,-4.8996 -131.07813,-30.875c-0.81726,-0.59812 -1.63453,-1.19625 -2.47656,-1.8125c-0.73477,-0.53625 -1.46953,-1.0725 -2.22656,-1.625c-29.70995,-22.47153 -58.05175,-55.0842 -66.77344,-92.375c-0.25857,-2.77105 -0.21428,-5.2144 0,-8c0.66,0 1.32,0 2,0c0.76184,1.57588 0.76184,1.57588 1.53906,3.18359c3.70935,7.59702 7.37214,15.02666 12.46094,21.81641c0.44602,0.63293 0.89203,1.26586 1.35156,1.91797c4.51634,5.91666 11.29157,9.78764 18.64844,11.08203c11.68622,0.67595 22.581,-0.58422 34,-3c1.01191,-0.2127 2.02383,-0.42539 3.06641,-0.64453c1.98245,-0.43124 3.95918,-0.88879 5.93359,-1.35547c0.64066,0.84562 1.28133,1.69125 1.94141,2.5625c2.24868,2.95705 4.51836,5.89709 6.80273,8.82666c1.01174,1.29771 2.01756,2.60004 3.02148,3.90381c16.23288,19.88117 43.89136,29.86012 68.71778,32.50049c11.79707,0.96821 23.97904,1.057 35.5166,-1.79346c1.26457,-0.2952 2.52914,-0.59039 3.83203,-0.89453c11.66233,-2.94737 21.76235,-8.17374 32.16797,-14.10547c1.0248,-0.57234 2.04961,-1.14469 3.10547,-1.73437c4.04434,-2.33255 7.62684,-4.83285 11.20703,-7.82813c13.73108,-10.93177 32.57776,-11.86362 49.39722,-12.52148c15.31188,-0.6289 29.32788,-2.35448 40.48632,-13.76221c3.35844,-4.00976 5.65384,-8.59237 8.05396,-13.21631c0.51562,-0.96744 1.03125,-1.93488 1.5625,-2.93164c2.46227,-4.63579 4.86867,-9.29673 7.1875,-14.00586z"/>
  <path id="svg_13" fill="#092F50" d="m357.08354,204.45613c3.17763,1.36282 4.87137,2.7553 6.91797,5.52734c0.52835,0.70464 1.05671,1.40927 1.60107,2.13526c0.55059,0.75072 1.10118,1.50143 1.66846,2.2749c4.66754,6.33902 4.66754,6.33902 9.69922,12.38672c1.2317,1.38639 1.2317,1.38639 2.48828,2.80078c0.72961,0.78633 1.45922,1.57266 2.21094,2.38281c1.98953,3.50641 1.33483,5.64766 0.41406,9.49219c-0.83477,2.45242 -1.89559,4.64713 -3,7c-5.12732,-4.7228 -9.13535,-10.25417 -13.3125,-15.8125c-1.11085,-1.46856 -1.11085,-1.46856 -2.24414,-2.9668c-1.81791,-2.40432 -3.63223,-4.81127 -5.44336,-7.2207c-3.57812,3.45737 -6.76885,7.06027 -9.8125,11c-0.46084,0.59249 -0.92168,1.18497 -1.39648,1.79541c-1.60162,2.06467 -3.19634,4.13456 -4.79102,6.20459c-0.62439,0.80663 -1.24878,1.61326 -1.89209,2.44434c-8.23353,10.64615 -16.28788,21.35823 -23.76611,32.55029c-1.42277,2.12638 -2.85833,4.24378 -4.29493,6.36084c-22.74107,33.6344 -46.70405,69.62724 -38.79687,112.08203c1.24761,5.92766 2.91034,11.61377 4.98047,17.30469c0.76953,2.25781 0.76953,2.25781 0.76953,4.25781c1.753,-0.59541 3.5023,-1.20172 5.25,-1.8125c0.97453,-0.33645 1.94906,-0.67289 2.95312,-1.01953c2.66226,-1.11175 4.53183,-2.41907 6.79688,-4.16797c0.66,0 1.32,0 2,0c0.08637,-0.60586 0.17273,-1.21172 0.26172,-1.83594c2.18999,-13.05961 8.73669,-20.98906 17.73828,-30.16406c-4.24792,2.27876 -7.60174,4.16435 -10.6875,7.9375c-0.57234,0.68965 -1.14469,1.3793 -1.73438,2.08984c-0.52078,0.65098 -1.04156,1.30196 -1.57812,1.97266c-0.80438,0.99 -1.60875,1.98 -2.4375,3c-0.77344,0.99 -0.77344,0.99 -1.5625,2c-0.52652,-10.88133 1.84112,-18.70589 9,-27c1,2 1,2 1,5c0.53625,-0.72188 1.0725,-1.44375 1.625,-2.1875c2.60809,-3.08853 5.16164,-5.36755 8.375,-7.8125c0.66,0 1.32,0 2,0c2.73518,-5.275 4.25757,-9.28065 4.125,-15.3125c-0.01805,-1.06863 -0.03609,-2.13727 -0.05469,-3.23828c-0.0232,-0.80824 -0.0464,-1.61649 -0.07031,-2.44922c4.08471,3.75352 7.58188,7.3355 8.23706,13.07764c0.05707,2.27331 0.02555,4.52467 -0.04956,6.79736c-0.0203,1.17562 -0.0203,1.17562 -0.04102,2.375c-0.03506,1.91697 -0.08886,3.83358 -0.14648,5.75c0.76699,-0.32742 1.53398,-0.65484 2.32422,-0.99219c2.77297,-1.04441 4.74351,-1.17537 7.67578,-1.00781c0,0.66 0,1.32 0,2c-0.7425,0.38285 -1.485,0.7657 -2.25,1.16016c-3.7002,2.47556 -4.88716,5.32827 -6.75,9.27734c-2.73726,5.76939 -5.12298,9.75972 -11.17578,12.57422c-4.96078,1.56895 -9.63871,2.51687 -14.82422,2.98828c-3.28404,8.10064 -4.46624,14.84427 -1.3125,23.25c4.39071,9.70499 11.70935,15.07979 21.51953,19.04688c7.96788,2.71163 15.23393,3.88481 23.60547,4.26562c0.88365,0.04318 1.7673,0.08637 2.67773,0.13086c2.16977,0.10556 4.33975,0.20655 6.50977,0.30664c-3.0044,2.00293 -4.70994,2.49272 -8.1875,3.125c-0.90105,0.16758 -1.80211,0.33516 -2.73047,0.50781c-0.68707,0.12117 -1.37414,0.24235 -2.08203,0.36719c0.33,0.99 0.66,1.98 1,3c17.5827,0.97531 34.89486,-3.49123 48.24341,-15.41772c2.30413,-2.14623 4.54419,-4.34152 6.75659,-6.58228c0.33,0.66 0.66,1.32 1,2c-3.1121,6.00191 -6.91484,11.53122 -12,16c0.33,0.99 0.66,1.98 1,3c2.2802,0.82724 2.2802,0.82724 5,1c8.47945,-5.28842 13.51972,-15.77672 16.66797,-24.94531c2.07472,-12.83885 0.06532,-23.91037 -7.29297,-34.67969c-8.28376,-10.64839 -17.99782,-16.79587 -29.5,-23.50781c-5.79675,-3.38367 -11.39033,-6.99404 -16.875,-10.86719c-0.59684,-0.41121 -1.19367,-0.82242 -1.80859,-1.24609c-7.77841,-5.83886 -13.83582,-16.11244 -15.77344,-25.60547c-1.8676,-14.06811 0.57928,-25.92185 8.43359,-37.78906c3.62944,-3.98578 8.10299,-5.70798 13.14844,-7.35938c-4.0773,0.78166 -8.01614,1.82828 -12,3c0,-0.66 0,-1.32 0,-2c12.9966,-10.00415 28.94825,-13.36594 45,-12c8.7709,1.55719 14.90858,4.53059 21,11c5.36764,5.49247 9.49245,8.08631 17,10c-2.23435,8.17445 -5.12055,13.52674 -12.6875,17.875c-3.97602,2.125 -3.97602,2.125 -6.3125,2.125c-0.72059,-0.81082 -1.44117,-1.62164 -2.18359,-2.45703c-3.91402,-3.53401 -6.76127,-3.28834 -11.86499,-3.1936c-8.33346,0.42935 -15.71139,3.91321 -21.51392,9.90063c-4.39948,5.86598 -6.25637,13.51663 -5.4375,20.75c1.55983,4.30809 3.54314,8.13922 6,12c-9.06476,-2.3243 -16.82602,-8.26583 -22,-16c-3.95182,-7.58796 -4.48728,-14.56735 -4,-23c0,-0.66 0,-1.32 0,-2c-2.74439,7.41427 -3.41329,14.65622 -0.9375,22.26563c5.57031,12.04882 14.88794,17.98454 26.9375,22.73437c5.64713,1.99084 11.33621,3.85101 17.05396,5.62842c17.56314,5.55619 34.61458,14.42348 43.50854,31.34424c4.98692,10.75304 6.36626,22.05118 3.54297,33.72656c-0.92787,2.50818 -1.90359,4.91312 -3.10547,7.30078c-0.9487,-2.8461 -1.06899,-4.26578 -0.92187,-7.17578c0.57513,-15.93038 -1.79256,-28.65462 -13.07813,-40.82422c-9.92464,-9.09272 -21.92761,-15.01984 -35,-18c0.57331,0.27562 1.14662,0.55124 1.7373,0.83521c17.48151,8.50408 32.45573,17.5879 40.7002,36.10229c3.88758,11.84788 2.75395,25.85989 -2.4375,37.0625c-0.35062,0.78375 -0.70125,1.5675 -1.0625,2.375c-7.02815,14.0563 -19.36176,22.666 -33.9375,27.625c-0.80051,0.27586 -1.60102,0.55172 -2.42578,0.83594c-17.71095,5.70592 -35.42967,4.83622 -53.57422,2.16406c-0.91137,-0.13277 -1.82273,-0.26555 -2.76172,-0.40234c-24.08088,-4.17933 -46.40484,-18.1597 -60.78906,-37.98828c-10.11738,-14.76181 -16.72445,-32.6108 -17.44922,-50.60938c-0.05156,-1.05703 -0.10313,-2.11406 -0.15625,-3.20312c-0.57325,-22.45221 5.66693,-42.16021 16.15625,-61.79688c0.39961,-0.7591 0.79922,-1.51819 1.21094,-2.30029c10.27518,-19.46939 22.10735,-37.81819 35.18457,-55.51416c1.62311,-2.21092 3.22262,-4.43709 4.81543,-6.66992c26.73738,-37.46395 26.73738,-37.46395 39.78906,-50.51563z"/>
  <path id="svg_14" fill="#1B5F90" d="m356.02104,153.14363c1.35355,0.00174 1.35355,0.00174 2.73444,0.00351c17.97671,0.04561 34.99632,1.33158 52.32806,6.30899c0.82419,0.22696 1.64839,0.45391 2.49756,0.68774c21.89438,6.09687 43.30012,15.57262 61.50244,29.31226c0.57959,0.4299 1.15919,0.8598 1.75635,1.30273c8.94577,6.66978 17.17689,13.99871 25.24365,21.69727c0.65355,0.6007 1.30711,1.20141 1.98047,1.82031c6.06682,5.73538 10.97247,12.55944 16.01953,19.17969c0.70383,0.90879 1.40766,1.81758 2.13281,2.75391c9.80309,12.99801 17.36313,27.36552 23.86719,42.24609c0.69029,1.55848 0.69029,1.55848 1.39453,3.14844c8.49716,20.55503 12.88,43.66977 13.60547,65.85156c0.02723,0.72848 0.05446,1.45696 0.08252,2.20752c1.52663,45.76997 -13.17875,93.68324 -43.08252,128.79248c-0.81984,1.00289 -1.63969,2.00578 -2.48437,3.03906c-18.71213,22.77804 -41.35022,40.45453 -67.51563,53.96094c-0.69029,0.36078 -1.38059,0.72155 -2.0918,1.09326c-43.8585,22.67138 -98.05385,26.1099 -145.0332,11.59424c-2.63941,-0.85672 -5.2591,-1.76171 -7.875,-2.6875c-0.70302,-0.24589 -1.40604,-0.49178 -2.13037,-0.74512c-28.37146,-10.06545 -53.1958,-26.5285 -74.86963,-47.25488c-0.92684,-0.87398 -1.85367,-1.74797 -2.80859,-2.64844c-7.15343,-6.92005 -13.31613,-14.34456 -19.19141,-22.35156c-0.41073,-0.55575 -0.82146,-1.11149 -1.24463,-1.68408c-29.98753,-41.14681 -42.36871,-93.64449 -35.23413,-143.92066c4.93876,-30.97257 15.9532,-60.91332 34.47876,-86.39526c0.6832,-0.9552 1.36641,-1.91039 2.07031,-2.89453c11.03935,-15.09502 23.25708,-28.47995 37.92969,-40.10547c0.95391,-0.78246 1.90781,-1.56492 2.89062,-2.37109c25.04831,-20.07076 55.5368,-33.86291 87.10938,-39.62891c1.44379,-0.26599 1.44379,-0.26599 2.91675,-0.53735c10.34684,-1.6989 20.55825,-1.81665 31.02075,-1.77515zm-112.9375,49.3125c-0.52046,0.40622 -1.04092,0.81243 -1.57715,1.23096c-36.26992,28.66203 -60.25869,67.81975 -70.42285,112.76904c-0.20367,0.85465 -0.40734,1.7093 -0.61719,2.58984c-10.35511,46.598 1.04919,96.87385 25.81641,137.03907c6.10818,9.39628 13.22685,17.86584 20.77734,26.125c1.59756,1.77335 3.10727,3.56293 4.58594,5.43359c3.18809,3.67856 6.68579,6.71972 10.4375,9.8125c1.00031,0.82629 2.00062,1.65258 3.03125,2.50391c30.81898,25.0342 70.37072,44.34406 110.77734,44.73437c0.83542,0.0098 1.67084,0.01959 2.53157,0.02968c18.20285,0.16937 35.87976,0.13983 53.65984,-4.26796c0.91604,-0.22494 1.83208,-0.44988 2.77588,-0.68164c6.14887,-1.55353 12.20254,-3.32916 18.22412,-5.31836c0.66226,-0.2185 1.32451,-0.43699 2.00684,-0.66211c17.61513,-6.01041 34.35121,-15.93497 48.99316,-27.33789c0.92426,-0.71414 1.84852,-1.42828 2.80078,-2.16406c11.56667,-9.20647 22.19743,-19.08588 31.19922,-30.83594c1.19689,-1.4734 1.19689,-1.4734 2.41797,-2.97656c26.52443,-32.8752 39.05762,-74.15799 38.95703,-116.02344c-0.00054,-0.85584 -0.00109,-1.71167 -0.00165,-2.59344c-0.04027,-13.82324 -0.99263,-26.95364 -4.37335,-40.40656c-0.31348,-1.31509 -0.31348,-1.31509 -0.6333,-2.65674c-10.0731,-41.58264 -36.67975,-82.00949 -71.3667,-107.34326c-0.97066,-0.71414 -1.94133,-1.42828 -2.94141,-2.16406c-21.48259,-15.34094 -44.98129,-25.90528 -70.74609,-31.58594c-0.90105,-0.19868 -1.80211,-0.39735 -2.73047,-0.60205c-12.95759,-2.71579 -25.78221,-4.0409 -39.01953,-4.02295c-1.03224,0.00082 -1.03224,0.00082 -2.08533,0.00165c-40.18378,0.14456 -80.84643,14.54002 -112.47717,39.37335z"/>
  <path id="svg_15" fill="#63ADCE" d="m342.08354,325.45613c0.30938,1.88719 0.30938,1.88719 0.625,3.8125c3.01126,13.61519 12.08874,22.79296 23.375,30.1875c3.67866,2.23891 7.3996,4.40248 11.125,6.5625c16.10687,9.3649 30.26771,19.89084 36.51172,38.31641c2.26217,13.20813 -0.18838,25.00377 -7.91016,35.97265c-2.95346,3.67513 -6.28048,6.93851 -9.72656,10.14844c-1.98,-0.66 -3.96,-1.32 -6,-2c0,-4.51424 0.28403,-4.73418 3.25,-7.75c3.54874,-3.82948 5.6274,-7.49538 7.75,-12.25c-0.42668,0.48469 -0.85336,0.96937 -1.29297,1.46875c-10.4509,11.20509 -24.53692,18.27337 -39.70703,20.53125c-2.43667,0.06702 -4.87502,0.08528 -7.3125,0.0625c-1.25426,-0.00902 -2.50852,-0.01805 -3.80078,-0.02734c-0.95262,-0.01161 -1.90524,-0.02321 -2.88672,-0.03516c-0.33,-1.32 -0.66,-2.64 -1,-4c3.3,-0.99 6.6,-1.98 10,-3c-1.02738,-0.03738 -2.05477,-0.07477 -3.11328,-0.11328c-15.58643,-0.6885 -32.41214,-3.93738 -43.67969,-15.76953c-5.23316,-6.58991 -7.93747,-13.16676 -7.51953,-21.65625c0.54428,-4.2862 0.99448,-7.46985 4.3125,-10.46094c3.7778,-1.38244 7.32401,-2.23999 11.27344,-3.01562c4.57968,-1.20973 8.11203,-2.65851 10.89355,-6.66553c1.08843,-1.92949 2.06942,-3.88078 3.02051,-5.88135c4.19912,-8.5708 4.19912,-8.5708 6.8125,-10.4375c0.99,0 1.98,0 3,0c0,-0.66 0,-1.32 0,-2c-3.63,0.99 -7.26,1.98 -11,3c0.04641,-1.20656 0.09281,-2.41313 0.14062,-3.65625c0.03755,-1.61456 0.07395,-3.22914 0.10938,-4.84375c0.03352,-0.79148 0.06703,-1.58297 0.10156,-2.39844c0.09523,-5.80891 -0.97603,-10.28825 -4.35156,-15.10156c-0.66,-0.33 -1.32,-0.66 -2,-1c0.05221,0.9784 0.05221,0.9784 0.10547,1.97656c0.21744,7.02012 -0.57627,11.22081 -5.41797,16.58594c-1.87131,1.69723 -3.79294,3.3399 -5.75,4.9375c-2.72608,2.32007 -4.80983,4.63583 -6.9375,7.5c0,-1.98 0,-3.96 0,-6c-5.81173,7.22539 -8.6083,14.67274 -8,24c0.4009,-0.56848 0.8018,-1.13695 1.21484,-1.72266c4.72378,-6.41619 10.51681,-13.78418 18.78516,-15.27734c-0.66,0.63938 -1.32,1.27875 -2,1.9375c-1.00475,1.01616 -2.004,2.03777 -3,3.0625c-0.63938,0.65484 -1.27875,1.30969 -1.9375,1.98438c-6.28656,6.71518 -10.24527,13.35662 -12.375,22.32812c-1.04701,3.72597 -2.08212,5.5148 -5.3125,7.6875c-4.26281,2.24233 -8.65746,3.21291 -13.375,4c-9.78571,-25.69518 -11.49265,-51.64453 -0.69531,-77.33984c1.35484,-3.0031 2.82383,-5.94445 4.30127,-8.88892c0.67314,-1.34265 0.67314,-1.34265 1.35989,-2.71242c0.34127,-0.67941 0.68254,-1.35882 1.03415,-2.05882c7.47462,-0.16828 14.94939,-0.32816 22.42432,-0.48218c2.54333,-0.0534 5.08663,-0.10872 7.62988,-0.16601c3.65372,-0.08197 7.30753,-0.15703 10.96142,-0.23072c1.13867,-0.02703 2.27734,-0.05407 3.45051,-0.08192c1.59119,-0.03015 1.59119,-0.03015 3.21453,-0.0609c0.93266,-0.01998 1.86532,-0.03997 2.82624,-0.06056c2.32917,0.07688 4.26817,0.41697 6.4931,1.08229z"/>
  <path id="svg_16" fill="#65AFD0" d="m198.08354,275.45613c1,2 1,2 0.56274,3.9043c-0.3849,1.14565 -0.3849,1.14565 -0.77758,2.31445c-0.27393,0.85078 -0.54786,1.70156 -0.83008,2.57813c-0.58537,1.77275 -1.17633,3.54366 -1.77344,5.3125c-2.56421,8.02291 -3.94448,17.03774 -0.18164,24.89062c5.44382,2.09589 10.67118,2.36349 16.45703,2.52734c1.85482,0.07085 3.70964,0.14182 5.56445,0.21289c2.87775,0.09994 5.75556,0.19613 8.63355,0.28882c9.93129,0.33107 19.72676,0.7986 29.54419,2.41236c0.7478,0.12205 1.4956,0.2441 2.26607,0.36985c3.437,0.6176 5.58801,1.22428 8.53471,3.18874c-0.65355,1.29357 -0.65355,1.29357 -1.32031,2.61328c-5.00855,10.16566 -8.5866,20.49737 -11.67969,31.38672c-0.34289,1.13566 -0.68578,2.27133 -1.03906,3.44141c-6.75976,25.74394 0.42677,49.79089 10.03906,73.55859c-15.67486,5.28481 -35.65282,10.25986 -51.64453,3.31641c-12.966,-7.24634 -19.49147,-21.27853 -25.35547,-34.31641c0,-0.66 0,-1.32 0,-2c-0.66,0 -1.32,0 -2,0c-0.495,1.98 -0.495,1.98 -1,4c-10.45363,-37.14631 -11.44738,-80.25682 5,-116c0.33,1.32 0.66,2.64 1,4c0.5543,-1.04801 1.10859,-2.09602 1.67969,-3.17578c0.73169,-1.37895 1.46346,-2.75786 2.19531,-4.13672c0.3648,-0.69029 0.72961,-1.38059 1.10547,-2.0918c0.35449,-0.66709 0.70898,-1.33418 1.07422,-2.02148c0.32468,-0.61271 0.64936,-1.22542 0.98388,-1.85669c0.9069,-1.62012 1.93153,-3.17268 2.96143,-4.71753z"/>
  <path id="svg_17" fill="#65AFD0" d="m519.08354,277.45613c1.62442,1.54707 3.04615,3.06293 4.375,4.875c1.58984,2.24896 1.58984,2.24896 4,4.0625c13.81851,13.90126 14.77383,47.02873 14.875,65.3125c-0.04309,10.68965 -0.72386,21.17244 -2.25,31.75c-0.11247,0.79535 -0.22494,1.5907 -0.34082,2.41016c-0.34481,2.36709 -0.71399,4.7286 -1.09668,7.08984c-0.16496,1.06928 -0.16496,1.06928 -0.33325,2.16016c-0.68578,3.90728 -1.48033,5.62461 -4.22925,8.33984c-0.84832,1.48207 -1.63817,2.99838 -2.38281,4.53516c-0.44046,0.88752 -0.88092,1.77504 -1.33472,2.68945c-0.46446,0.9365 -0.92893,1.87301 -1.40747,2.83789c-6.50455,12.73074 -13.57737,22.81004 -27.5625,27.6875c-5.46111,1.71721 -10.62768,2.39287 -16.35156,2.60938c-1.39093,0.06041 -2.7818,0.12232 -4.17261,0.18554c-0.72158,0.03279 -1.44317,0.06558 -2.18661,0.09937c-13.42014,0.63712 -25.80335,2.00119 -38.60172,6.35571c-1.15113,0.38156 -2.30227,0.76313 -3.48828,1.15625c-1.2433,0.41766 -1.2433,0.41766 -2.51172,0.84375c1.96997,-2.55366 3.9353,-4.9371 6.25,-7.1875c11.81716,-12.08573 19.25361,-25.63231 23.75,-41.8125c0.31969,-1.14211 0.63938,-2.28422 0.96875,-3.46094c4.59613,-18.59731 2.50842,-36.58635 -6.50391,-53.42968c-1.966,-4.17318 -2.31517,-6.60262 -1.46484,-11.10938c4.96047,-6.05707 13.72603,-6.62852 21,-7.5c1.41177,-0.18381 1.41177,-0.18381 2.85205,-0.37134c5.20756,-0.67118 10.42063,-1.27338 15.64014,-1.8435c1.06605,-0.12118 2.13211,-0.24235 3.23047,-0.36719c2.05057,-0.23123 4.10268,-0.44939 6.15625,-0.65234c5.91612,-0.66991 11.19629,-1.73874 16.12109,-5.26563c3.858,-5.787 2.728,-14.05041 1.50049,-20.70996c-1.19301,-5.45992 -2.57208,-10.86809 -4.04151,-16.25977c-0.45898,-2.03027 -0.45898,-2.03027 -0.45898,-5.03027z"/>
  <path id="svg_18" fill="#99D2E5" d="m478.33403,205.35945c4.15519,3.69494 8.15718,7.53485 12.09863,11.45605c1.42621,1.41735 2.87448,2.81242 4.32666,4.20313c24.00348,23.2158 42.59292,55.69431 49.85498,88.3374c0.32551,1.45681 0.66681,2.91014 1.02051,4.36035c10.93931,45.74538 2.17726,97.41928 -21.81689,137.646c-26.30156,42.34568 -66.55263,74.33547 -114.98438,87.28125c-0.87922,0.23799 -1.75844,0.47599 -2.6643,0.72119c-15.26829,3.90219 -30.36579,5.59757 -46.1023,5.48242c-2.61478,-0.01615 -5.22803,0.00001 -7.84277,0.01905c-14.30978,0.01821 -27.82254,-1.95264 -41.64063,-5.72266c-0.78351,-0.21165 -1.56701,-0.4233 -2.37427,-0.64136c-33.34116,-9.22174 -62.95453,-27.25517 -87.12573,-52.04614c-0.60715,-0.56203 -1.2143,-1.12406 -1.83984,-1.70313c-13.07461,-12.38895 -22.75891,-27.48255 -31.16016,-43.29687c-0.33725,-0.63051 -0.6745,-1.26103 -1.02197,-1.91064c-21.77584,-41.47076 -25.82211,-92.22911 -12.88818,-137.01905c7.43529,-23.28222 18.24617,-44.55466 32.91015,-64.07031c1.05574,-1.42506 1.05574,-1.42506 2.13281,-2.87891c19.36584,-24.87181 44.51177,-42.93442 72.86719,-56.12109c0.65662,-0.3068 1.31323,-0.61359 1.98975,-0.92969c12.23644,-5.6185 24.8982,-9.11502 38.01025,-12.07031c0.78005,-0.18079 1.56009,-0.36158 2.36377,-0.54785c51.95066,-11.58554 113.49115,5.28716 153.88672,39.45117zm-178.46143,-24.04395c-2.69515,1.10223 -5.42231,2.0528 -8.17407,3.0022c-14.98075,5.27662 -29.21718,13.22018 -41.61499,23.13843c-1.24075,0.96371 -2.48165,1.92723 -3.72265,2.89062c-36.28519,28.48943 -60.35371,67.78493 -69.27735,113.10938c-0.24621,1.23363 -0.49242,2.46727 -0.74609,3.73828c-5.73215,34.90683 0.27923,73.62333 15.74609,105.26172c0.52183,1.08281 0.52183,1.08281 1.0542,2.1875c12.01711,24.6392 29.33899,45.95264 50.9458,62.8125c0.55043,0.43216 1.10086,0.86432 1.66797,1.30957c37.92251,29.54973 86.24213,43.34047 134.10938,38.15918c10.24197,-1.3501 20.29515,-3.64117 30.22265,-6.46875c1.13695,-0.31195 2.27391,-0.62391 3.44531,-0.94531c8.46539,-2.55666 16.32998,-6.13639 24.30469,-9.92969c1.04148,-0.49371 2.08297,-0.98742 3.15601,-1.49609c25.414,-12.35126 47.82213,-31.50465 64.82446,-53.95801c1.11777,-1.47116 2.2547,-2.92771 3.39453,-4.38184c27.23257,-35.68784 37.31645,-84.30712 32.10571,-128.41479c-2.62208,-18.88371 -8.25519,-36.60674 -16.23071,-53.87427c-0.41886,-0.93417 -0.41886,-0.93417 -0.84619,-1.88721c-7.20501,-16.00085 -17.53985,-30.06091 -29.15381,-43.11279c-0.64711,-0.76828 -1.29422,-1.53656 -1.96094,-2.32813c-3.98356,-4.7226 -8.32169,-8.69603 -13.03906,-12.67187c-0.93586,-0.83531 -1.87172,-1.67063 -2.83594,-2.53125c-7.62768,-6.75131 -15.66942,-12.22645 -24.42187,-17.41992c-1.43442,-0.86355 -2.8424,-1.77084 -4.24219,-2.68946c-40.65411,-26.42517 -104.20833,-32.43126 -148.71094,-13.5z"/>
  <path id="svg_19" fill="#4E9EC5" d="m356.02104,153.14363c1.35355,0.00174 1.35355,0.00174 2.73444,0.00351c17.97671,0.04561 34.99632,1.33158 52.32806,6.30899c0.82419,0.22696 1.64839,0.45391 2.49756,0.68774c21.89438,6.09687 43.30012,15.57262 61.50244,29.31226c0.57959,0.4299 1.15919,0.8598 1.75635,1.30273c8.94577,6.66978 17.17689,13.99871 25.24365,21.69727c0.65355,0.6007 1.30711,1.20141 1.98047,1.82031c6.06682,5.73538 10.97247,12.55944 16.01953,19.17969c0.70383,0.90879 1.40766,1.81758 2.13281,2.75391c9.80309,12.99801 17.36313,27.36552 23.86719,42.24609c0.69029,1.55848 0.69029,1.55848 1.39453,3.14844c8.28616,20.04461 13.54942,43.10566 12.60547,64.85156c-2.97,0 -5.94,0 -9,0c-0.33,6.93 -0.66,13.86 -1,21c-0.33,0 -0.66,0 -1,0c-0.00935,-0.87922 -0.01869,-1.75844 -0.02832,-2.66431c-0.24043,-18.08253 -0.79842,-35.64856 -4.97168,-53.33569c-0.20754,-0.88542 -0.41508,-1.77085 -0.62891,-2.68311c-9.99048,-41.16588 -36.08035,-81.14603 -70.37109,-106.31689c-0.97195,-0.71543 -1.94391,-1.43086 -2.94531,-2.16797c-21.48594,-15.33579 -44.97685,-25.90125 -70.74219,-31.58203c-0.90105,-0.19868 -1.80211,-0.39735 -2.73047,-0.60205c-12.95759,-2.71579 -25.78221,-4.0409 -39.01953,-4.02295c-1.03224,0.00082 -1.03224,0.00082 -2.08533,0.00165c-40.173,0.14452 -80.86059,14.53244 -112.47717,39.37335c-0.78866,0.6173 -0.78866,0.6173 -1.59326,1.24707c-35.83306,28.4068 -59.35546,67.30284 -69.40674,111.75293c-0.20367,0.85465 -0.40734,1.7093 -0.61719,2.58984c-3.37166,15.17249 -3.803,30.93848 -4.38281,46.41016c-3.3,0.33 -6.6,0.66 -10,1c-0.495,1.98 -0.495,1.98 -1,4c-0.96568,-46.59545 8.08155,-91.59811 36,-130c0.6832,-0.9552 1.36641,-1.91039 2.07031,-2.89453c11.03935,-15.09502 23.25708,-28.47995 37.92969,-40.10547c0.95391,-0.78246 1.90781,-1.56492 2.89062,-2.37109c25.04831,-20.07076 55.5368,-33.86291 87.10938,-39.62891c1.44379,-0.26599 1.44379,-0.26599 2.91675,-0.53735c10.34684,-1.6989 20.55825,-1.81665 31.02075,-1.77515z"/>
  <path id="svg_22" fill="#ABDBEA" d="m319.08354,250.45613c0,3.30057 -0.33606,3.83057 -2.20313,6.37891c-0.47953,0.66427 -0.95906,1.32854 -1.45312,2.01294c-0.52594,0.71631 -1.05187,1.43263 -1.59375,2.17065c-1.11119,1.54557 -2.22051,3.09249 -3.32813,4.64063c-0.57041,0.79599 -1.14082,1.59199 -1.72851,2.4121c-19.5878,27.58559 -40.95804,58.48644 -46.69336,92.38477c-0.13148,0.77344 -0.26297,1.54688 -0.39844,2.34375c-3.37766,24.46527 2.1062,50.98779 16.23828,71.30078c1.9632,2.54934 4.01169,4.96027 6.16016,7.35547c0.81211,0.90621 1.62422,1.81242 2.46094,2.74609c15.55273,16.44212 37.11689,26.63393 59.53906,29.25391c0.92813,0.11086 1.85625,0.22172 2.8125,0.33594c23.21959,2.33458 48.35984,0.23828 67.66016,-14.1836c9.61676,-8.07551 17.49376,-20.3926 18.72021,-33.16015c0.40635,-10.6784 0.29581,-19.47367 -5.19287,-28.99219c-0.46922,-0.81855 -0.93844,-1.63711 -1.42187,-2.48047c-9.61932,-15.43744 -25.57713,-22.31429 -41.57813,-29.51953c6.48595,-2.16198 15.40267,2.82626 21.49219,5.57813c14.24925,7.31256 24.85771,16.81627 31.00781,31.85937c2.69206,8.82005 1.83314,18.44484 1.5,27.5625c2.70533,-6.73188 4.52433,-12.74601 5,-20c2.16874,0.50604 3.99968,0.99984 6,2c8.14525,-23.44726 8.51686,-49.40463 -2.3125,-72.1875c-0.34676,-0.65355 -0.69352,-1.30711 -1.05078,-1.98047c-0.7975,-2.29465 -0.41386,-3.57082 0.36328,-5.83203c12.96789,12.41606 18.74234,28.65055 19.34717,46.38892c0.32789,25.60704 -10.78624,50.28433 -28.34717,68.61108c-3.51811,3.21685 -7.19112,6.13663 -11,9c-0.86238,0.67676 -1.72477,1.35352 -2.61328,2.05078c-7.32987,5.59242 -15.16522,9.84648 -23.38672,13.94922c-0.96035,0.48598 -1.9207,0.97195 -2.91016,1.47266c-27.52452,13.25555 -59.05124,12.21667 -87.44946,2.48681c-23.81467,-8.66995 -42.90782,-24.99707 -53.99194,-47.91626c-11.57237,-25.14133 -12.95646,-51.68351 -4.64844,-78.04321c0.25701,-0.81694 0.51401,-1.63389 0.77881,-2.47559c9.73619,-30.03935 29.01004,-56.62302 49.42822,-80.37207c1.8227,-2.02109 1.8227,-2.02109 2.79297,-4.15234c0.66,0 1.32,0 2,0c0.24492,-0.56203 0.48984,-1.12406 0.74219,-1.70312c1.48708,-2.71554 3.29844,-4.76079 5.38281,-7.04688c0.72445,-0.79922 1.44891,-1.59844 2.19531,-2.42187c0.5543,-0.60329 1.1086,-1.20657 1.67969,-1.82813z"/>
  <path id="svg_23" fill="#AEDFEE" d="m478.33403,205.35945c4.15519,3.69494 8.15718,7.53485 12.09863,11.45605c1.42621,1.41735 2.87448,2.81242 4.32666,4.20313c31.61839,30.58082 53.73003,76.9855 54.76172,121.25c-0.0039,2.95703 -0.0039,2.95703 -0.4375,5.1875c-3,2 -3,2 -7,2c-0.09704,-0.96317 -0.09704,-0.96317 -0.19604,-1.9458c-4.51189,-43.6162 -18.31745,-80.5308 -46.80396,-114.0542c-0.69351,-0.8366 -1.38703,-1.6732 -2.10156,-2.53516c-3.92348,-4.64905 -8.25412,-8.55056 -12.89844,-12.46484c-0.93586,-0.83531 -1.87172,-1.67063 -2.83594,-2.53125c-7.62768,-6.75131 -15.66942,-12.22645 -24.42187,-17.41992c-1.43442,-0.86355 -2.8424,-1.77084 -4.24219,-2.68946c-37.25321,-24.21458 -87.06015,-28.09474 -129.5,-19.35937c-6.63467,1.5129 -12.94389,3.1934 -19.21094,5.85937c-2.69515,1.10223 -5.42231,2.0528 -8.17407,3.0022c-14.97953,5.27619 -29.21965,13.21865 -41.61499,23.13843c-1.25252,0.97536 -2.50514,1.95061 -3.75781,2.92578c-40.60102,31.94499 -64.19027,76.91343 -70.43091,127.96436c-0.27823,2.36917 -0.54985,4.73878 -0.81128,7.10986c-2.31,-0.66 -4.62,-1.32 -7,-2c0.9394,-38.89129 15.78115,-75.09905 39,-106c1.05574,-1.42506 1.05574,-1.42506 2.13281,-2.87891c19.36584,-24.87181 44.51177,-42.93442 72.86719,-56.12109c0.65662,-0.3068 1.31323,-0.61359 1.98975,-0.92969c12.23644,-5.6185 24.8982,-9.11502 38.01025,-12.07031c0.78005,-0.18079 1.56009,-0.36158 2.36377,-0.54785c51.95066,-11.58554 113.49115,5.28716 153.88672,39.45117z"/>
  <path id="svg_25" fill="#69B1D1" d="m355.08354,306.45613c0.33,0.66 0.66,1.32 1,2c-0.33,0.99 -0.66,1.98 -1,3c-0.95131,10.1057 0.62294,19.14224 7,27.25c4.50617,4.7724 10.24217,7.72454 16,10.75c-0.29648,-0.59168 -0.59297,-1.18336 -0.89844,-1.79297c-2.82181,-5.65363 -4.49433,-9.79172 -4.10156,-16.20703c18.6021,-7.136 37.436,-6.2468 57,-6c-0.99,-2.97 -0.99,-2.97 -2,-6c1.09284,-1.03295 2.19971,-2.05108 3.3125,-3.0625c0.61488,-0.56848 1.22977,-1.13695 1.86328,-1.72266c0.90299,-0.60134 0.90299,-0.60134 1.82422,-1.21484c4.02943,1.34314 4.85074,3.79613 6.6875,7.375c0.3445,0.66193 0.689,1.32387 1.04395,2.00586c7.81595,15.32011 15.56064,32.16755 16.26855,49.61914c0.05994,1.32838 0.05994,1.32838 0.12109,2.68359c0.2925,12.95604 -1.87746,25.10053 -6.12109,37.31641c-3,0 -3,0 -7,-2c0,2.97 0,5.94 0,9c-0.33,0 -0.66,0 -1,0c-0.01418,-1.08797 -0.02836,-2.17594 -0.04297,-3.29687c-0.38427,-14.44406 -4.04262,-25.75289 -13.95703,-36.70313c-12.22808,-10.96549 -26.70984,-16.19705 -42.08203,-21.10181c-14.24344,-4.57178 -28.57466,-10.0683 -35.85547,-24.02319c-3.18065,-7.63145 -3.43146,-15.81996 -0.625,-23.625c1.5625,-3.25 1.5625,-3.25 2.5625,-4.25z"/>
  <path id="svg_26" fill="#4999C1" d="m322.08354,341.45613c4.08471,3.75352 7.58188,7.3355 8.23706,13.07764c0.05707,2.27331 0.02555,4.52467 -0.04956,6.79736c-0.0203,1.17563 -0.0203,1.17563 -0.04102,2.375c-0.03506,1.91697 -0.08886,3.83358 -0.14648,5.75c0.76699,-0.32742 1.53398,-0.65484 2.32422,-0.99219c2.77297,-1.04441 4.74351,-1.17537 7.67578,-1.00781c0,0.66 0,1.32 0,2c-0.7425,0.38285 -1.485,0.7657 -2.25,1.16016c-3.7002,2.47556 -4.88716,5.32827 -6.75,9.27734c-2.73726,5.76939 -5.12298,9.75972 -11.17578,12.57422c-4.96078,1.56895 -9.63871,2.51687 -14.82422,2.98828c-3.28404,8.10064 -4.46624,14.84427 -1.3125,23.25c4.39071,9.70499 11.70935,15.07979 21.51953,19.04688c7.96788,2.71163 15.23393,3.88481 23.60547,4.26562c0.88365,0.04318 1.7673,0.08637 2.67773,0.13086c2.16977,0.10556 4.33975,0.20655 6.50977,0.30664c-3.0044,2.00293 -4.70994,2.49272 -8.1875,3.125c-0.90105,0.16758 -1.80211,0.33516 -2.73047,0.50781c-0.68707,0.12117 -1.37414,0.24235 -2.08203,0.36719c0.33,0.99 0.66,1.98 1,3c17.5827,0.97531 34.89486,-3.49123 48.24341,-15.41772c2.30413,-2.14623 4.54419,-4.34152 6.75659,-6.58228c0.33,0.66 0.66,1.32 1,2c-3.1121,6.00191 -6.91484,11.53122 -12,16c0.33,0.99 0.66,1.98 1,3c1.485,0.495 1.485,0.495 3,1c-1.23303,3.6991 -3.00867,4.70642 -6.27734,6.66406c-19.85598,9.74282 -41.15898,9.36627 -61.85254,2.38599c-19.12089,-6.85385 -36.73787,-21.75096 -45.87012,-40.05005c0,-0.66 0,-1.32 0,-2c0.67547,-0.25395 1.35094,-0.50789 2.04687,-0.76953c0.89204,-0.34418 1.78407,-0.68836 2.70313,-1.04297c0.88172,-0.33645 1.76344,-0.67289 2.67187,-1.01953c2.50943,-1.13685 4.39559,-2.51208 6.57813,-4.16797c0.66,0 1.32,0 2,0c0.08637,-0.60586 0.17273,-1.21172 0.26172,-1.83594c2.18999,-13.05961 8.73669,-20.98906 17.73828,-30.16406c-4.24792,2.27876 -7.60174,4.16435 -10.6875,7.9375c-0.57234,0.68965 -1.14469,1.3793 -1.73438,2.08984c-0.52078,0.65098 -1.04156,1.30196 -1.57812,1.97266c-0.80438,0.99 -1.60875,1.98 -2.4375,3c-0.51563,0.66 -1.03125,1.32 -1.5625,2c-0.52652,-10.88133 1.84112,-18.70589 9,-27c1,2 1,2 1,5c0.53625,-0.72188 1.0725,-1.44375 1.625,-2.1875c2.60809,-3.08853 5.16164,-5.36755 8.375,-7.8125c0.66,0 1.32,0 2,0c2.73518,-5.275 4.25757,-9.28065 4.125,-15.3125c-0.01805,-1.06863 -0.03609,-2.13727 -0.05469,-3.23828c-0.0232,-0.80824 -0.0464,-1.61649 -0.07031,-2.44922z"/>
  <path id="svg_27" fill="#7ABCD8" d="m335.11089,286.41707c3.20447,0.03151 5.88867,0.24319 8.97266,1.03906c-0.57585,2.38564 -1.22228,4.66683 -2,7c0.83144,-0.55881 0.83144,-0.55881 1.67968,-1.1289c0.72446,-0.47309 1.44891,-0.94618 2.19532,-1.4336c0.71929,-0.47566 1.43859,-0.95133 2.17968,-1.4414c0.96293,-0.49307 0.96293,-0.49307 1.94532,-0.9961c0.99,0.495 0.99,0.495 2,1c-0.38672,0.51047 -0.77344,1.02094 -1.17188,1.54688c-7.22059,10.08023 -9.43235,20.18399 -9.82812,32.45312c-3.00367,1.00122 -4.9774,1.12112 -8.11402,1.11353c-1.04085,-0.00008 -2.0817,-0.00015 -3.1541,-0.00023c-1.12195,-0.00516 -2.2439,-0.01032 -3.39985,-0.01564c-1.72493,-0.00212 -1.72493,-0.00212 -3.4847,-0.00429c-3.6783,-0.0056 -7.35655,-0.01816 -11.03483,-0.03087c-2.49154,-0.00501 -4.98308,-0.00957 -7.47461,-0.01367c-6.11265,-0.01103 -12.22527,-0.02778 -18.33789,-0.04883c1.09611,-3.4761 2.20448,-6.67555 4.0664,-9.8125c0.59591,-1.01501 0.59591,-1.01501 1.20386,-2.05053c0.88312,-1.46042 1.77293,-2.9168 2.66846,-4.36963c2.2001,-3.57638 4.25186,-7.0586 5.91284,-10.91968c1.81024,-3.90783 3.49829,-7.3864 7.14844,-9.84766c8.99121,-2.82812 18.72278,-1.95996 28.02734,-2.03906z"/>
  <path id="svg_28" fill="#368AB9" d="m494.08354,206.45613c10.29972,4.30151 18.22805,16.6691 24.7627,25.35693c1.10647,1.46933 2.22941,2.92622 3.35449,4.38135c9.81852,12.99278 17.37707,27.37733 23.88281,42.26172c0.4602,1.03898 0.92039,2.07797 1.39453,3.14844c8.28616,20.04461 13.54942,43.10566 12.60547,64.85156c-2.97,0 -5.94,0 -9,0c-0.33,6.93 -0.66,13.86 -1,21c-0.33,0 -0.66,0 -1,0c-0.00935,-0.87922 -0.01869,-1.75844 -0.02832,-2.66431c-0.24043,-18.08253 -0.79842,-35.64856 -4.97168,-53.33569c-0.20754,-0.88542 -0.41508,-1.77085 -0.62891,-2.68311c-8.8276,-36.37422 -29.45261,-68.62198 -56.37109,-94.31689c1.99856,-3.49891 3.60334,-5.7746 7,-8z"/>
  <path id="svg_29" fill="#ACDCEB" d="m404.08354,223.45613c0.99,0.495 0.99,0.495 2,1c-0.45375,0.66 -0.9075,1.32 -1.375,2c-3.86678,7.13867 -5.05431,15.58231 -2.97266,23.47266c3.73469,10.1141 9.96254,18.4991 17.28125,26.30078c1.70074,1.83254 3.23622,3.68277 4.75391,5.66406c4.68994,5.19696 9.65508,5.98858 16.3125,6.5625c0.68448,8.04266 -2.17002,14.0773 -7.25,20.25c-4.93902,5.30918 -10.67467,8.98117 -17.75,10.75c-1.32,0 -2.64,0 -4,0c-0.33,-1.65 -0.66,-3.3 -1,-5c-9.6475,-1.64213 -17.10609,-1.60244 -26,3c-1.7075,1.28062 -3.39372,2.5945 -5,4c-0.66,0 -1.32,0 -2,0c2.89258,-6.48384 8.79663,-10.65017 15.26562,-13.30469c5.73689,-1.45881 11.90045,-1.59284 17.73438,-0.69531c2.95313,1.90625 2.95313,1.90625 5,4c0,0.66 0,1.32 0,2c8.44618,-4.17132 14.31427,-7.30196 17.8125,-16.375c0.39187,-1.19625 0.78375,-2.3925 1.1875,-3.625c-0.66387,-0.09797 -1.32773,-0.19594 -2.01172,-0.29687c-6.4959,-1.10004 -10.24819,-2.39048 -14.55859,-7.60157c-5.82875,-7.03108 -12.19403,-10.93993 -21.42969,-12.10156c-14.62088,-0.8942 -26.11011,1.63009 -39.06641,8.47656c-2.93359,1.52344 -2.93359,1.52344 -5.93359,2.52344c3.82233,0.25304 3.82233,0.25304 6.4375,-1c2.72089,-1.06181 4.67137,-1.16521 7.5625,-1c-1.95535,1.95535 -3.22957,2.68924 -5.70313,3.80469c-0.73347,0.33644 -1.46695,0.67289 -2.22265,1.01953c-1.53357,0.69333 -3.06742,1.38605 -4.60156,2.07812c-4.45845,2.04637 -8.47103,4.25574 -12.47266,7.09766c4.03445,-11.39379 13.77508,-19.62563 24.375,-24.8125c5.40596,-2.32449 10.80832,-3.43369 16.625,-4.1875c-0.04641,-0.88301 -0.09281,-1.76602 -0.14063,-2.67578c-0.38474,-12.79277 2.92082,-24.59919 11.8711,-34.17578c3.42158,-3.06658 6.96898,-5.44822 11.26953,-7.14844z"/>
  <path id="svg_30" fill="#296B99" d="m551.08354,345.45613c2.03125,0.08594 2.03125,0.08594 4.5,0.375c0.81469,0.09023 1.62937,0.18047 2.46875,0.27344c2.03125,0.35156 2.03125,0.35156 3.03125,1.35156c2.59824,46.41863 -12.99627,95.37805 -43,131c-1.50441,1.87146 -3.00448,3.74642 -4.5,5.625c-1.7325,2.16563 -1.7325,2.16563 -3.5,4.375c-4.29,-0.66 -8.58,-1.32 -13,-2c2.20801,-3.58801 4.54198,-6.6267 7.4375,-9.6875c30.17642,-33.54808 43.91543,-79.47027 45.27197,-123.82446c0.2009,-6.39841 0.2009,-6.39841 1.29053,-7.48804z"/>
  <path id="svg_31" fill="#AEDEEC" d="m319.08354,250.45613c0,3.30057 -0.33606,3.83057 -2.20313,6.37891c-0.47953,0.66427 -0.95906,1.32854 -1.45312,2.01294c-0.52594,0.71631 -1.05187,1.43263 -1.59375,2.17065c-1.11119,1.54557 -2.22051,3.09249 -3.32813,4.64063c-0.57041,0.79599 -1.14082,1.59199 -1.72851,2.4121c-19.5878,27.58559 -40.95804,58.48644 -46.69336,92.38477c-0.13148,0.77344 -0.26297,1.54688 -0.39844,2.34375c-2.99504,21.69385 1.1888,44.37138 11.39844,63.65625c0,0.66 0,1.32 0,2c-4.62,0.33 -9.24,0.66 -14,1c-10.41678,-26.76969 -13.80128,-51.07527 -5,-79c0.25701,-0.81694 0.51401,-1.63389 0.77881,-2.47559c9.73619,-30.03935 29.01004,-56.62302 49.42822,-80.37207c1.8227,-2.02109 1.8227,-2.02109 2.79297,-4.15234c0.66,0 1.32,0 2,0c0.24492,-0.56203 0.48984,-1.12406 0.74219,-1.70312c1.48708,-2.71554 3.29844,-4.76079 5.38281,-7.04688c0.72445,-0.79922 1.44891,-1.59844 2.19531,-2.42187c0.5543,-0.60329 1.1086,-1.20657 1.67969,-1.82813z"/>
  <path id="svg_32" fill="#368BB9" d="m198.08354,234.45613c1.69142,0.08963 3.3796,0.24578 5.0625,0.4375c1.37865,0.15275 1.37865,0.15275 2.78516,0.30859c0.71027,0.08379 1.42054,0.16758 2.15234,0.25391c-0.60524,3.0358 -1.54367,5.07641 -3.33594,7.58984c-0.48187,0.69094 -0.96373,1.38188 -1.4602,2.09375c-0.52103,0.74379 -1.04205,1.48758 -1.57886,2.25391c-13.36248,19.60876 -23.29789,40.91199 -28.625,64.0625c-0.27586,1.19883 -0.55172,2.39766 -0.83594,3.63281c-3.56902,16.64364 -4.52815,33.39853 -5.16406,50.36719c-3.3,0.33 -6.6,0.66 -10,1c-0.495,1.98 -0.495,1.98 -1,4c-0.94337,-45.51881 7.19679,-93.05412 36,-130c1.64001,-1.69291 3.3024,-3.36485 5,-5c0.33,-0.33 0.66,-0.66 1,-1z"/>
  <path id="svg_33" fill="#093051" d="m322.08354,341.45613c4.08471,3.75352 7.58188,7.3355 8.23706,13.07764c0.05707,2.27331 0.02555,4.52467 -0.04956,6.79736c-0.0203,1.17563 -0.0203,1.17563 -0.04102,2.375c-0.03506,1.91697 -0.08886,3.83358 -0.14648,5.75c0.76699,-0.32742 1.53398,-0.65484 2.32422,-0.99219c2.77297,-1.04441 4.74351,-1.17537 7.67578,-1.00781c0,0.66 0,1.32 0,2c-0.7425,0.38285 -1.485,0.7657 -2.25,1.16016c-3.7002,2.47556 -4.88716,5.32827 -6.75,9.27734c-2.73726,5.76939 -5.12298,9.75972 -11.17578,12.57422c-4.96078,1.56895 -9.63871,2.51687 -14.82422,2.98828c-3.28404,8.10064 -4.46624,14.84427 -1.3125,23.25c4.39071,9.70499 11.70935,15.07979 21.51953,19.04688c7.96788,2.71163 15.23393,3.88481 23.60547,4.26562c0.88365,0.04318 1.7673,0.08637 2.67773,0.13086c2.16977,0.10556 4.33975,0.20655 6.50977,0.30664c-6.55908,4.37272 -13.80832,4.31601 -21.4375,4.25c-1.33515,0.0116 -1.33515,0.0116 -2.69727,0.02344c-11.90428,-0.03478 -21.36801,-2.78803 -30.01367,-11.41797c-6.24823,-7.52688 -8.50089,-14.93716 -8.1914,-24.67969c1.48579,-13.88447 8.21499,-24.28095 18.87109,-33.03125c0.48469,-0.37769 0.96938,-0.75539 1.46875,-1.14453c-8.05853,3.42488 -13.82522,8.8776 -18.08984,16.49609c-0.30036,0.49629 -0.60071,0.99258 -0.91016,1.50391c-0.33,0 -0.66,0 -1,0c-0.52652,-10.88133 1.84112,-18.70589 9,-27c1,2 1,2 1,5c0.80438,-1.08281 0.80438,-1.08281 1.625,-2.1875c2.60809,-3.08853 5.16164,-5.36755 8.375,-7.8125c0.66,0 1.32,0 2,0c2.73518,-5.275 4.25757,-9.28065 4.125,-15.3125c-0.01805,-1.06863 -0.03609,-2.13727 -0.05469,-3.23828c-0.0232,-0.80824 -0.0464,-1.61649 -0.07031,-2.44922z"/>
  <path id="svg_34" fill="#296C99" d="m168.08354,365.45613c0.06469,0.58677 0.12939,1.17353 0.19604,1.77808c4.36597,38.60408 15.99714,74.46428 40.90552,104.88598c2.73718,3.36797 5.32304,6.84355 7.89844,10.33594c-0.72316,0.5066 -0.72316,0.5066 -1.46094,1.02344c-0.63164,0.44601 -1.26328,0.89203 -1.91406,1.35156c-0.62648,0.44086 -1.25297,0.88172 -1.89844,1.33594c-1.85037,1.31715 -1.85037,1.31715 -3.72656,3.28906c-12.85788,-12.92433 -22.63737,-28.88921 -31,-45c-0.60199,-1.14984 -1.20398,-2.29969 -1.82422,-3.48437c-11.14086,-22.53209 -19.27322,-49.15248 -18.17578,-74.51563c3.67411,-1.17571 7.16929,-1.07367 11,-1z"/>
  <path id="svg_35" fill="#98D1E4" d="m267.10307,427.96785c2.70478,-0.39316 4.3689,-0.37367 6.98047,0.48828c2.53329,2.64323 4.51945,5.55061 6.57031,8.56641c7.31425,10.66385 17.34621,18.07207 28.42969,24.43359c0.85207,0.49113 1.70414,0.98227 2.58203,1.48828c10.63939,5.69905 22.46722,9.1153 34.41797,10.51172c0.92812,0.11086 1.85625,0.22172 2.8125,0.33594c13.5528,1.36264 26.77683,1.0444 40.1875,-1.33594c0,0.66 0,1.32 0,2c2.97,0.495 2.97,0.495 6,1c-17.03125,11.35417 -44.88383,9.78636 -64.17578,6.09766c-27.61613,-5.94818 -50.90573,-19.42523 -66.82422,-43.09766c-4,-6.39705 -4,-6.39705 -4,-9c2.32586,-0.60022 4.68496,-0.92383 7.01953,-1.48828z"/>
  <path id="svg_36" fill="#184362" d="m357.08354,204.45613c3.17763,1.36282 4.87137,2.7553 6.91797,5.52734c0.52835,0.70464 1.05671,1.40927 1.60107,2.13526c0.55059,0.75072 1.10118,1.50143 1.66846,2.2749c4.66754,6.33902 4.66754,6.33902 9.69922,12.38672c1.2317,1.38639 1.2317,1.38639 2.48828,2.80078c0.72961,0.78633 1.45922,1.57266 2.21094,2.38281c1.98953,3.50641 1.33483,5.64766 0.41406,9.49219c-0.83477,2.45242 -1.89559,4.64713 -3,7c-5.12732,-4.7228 -9.13535,-10.25417 -13.3125,-15.8125c-0.74057,-0.97904 -1.48113,-1.95809 -2.24414,-2.9668c-1.81791,-2.40432 -3.63223,-4.81127 -5.44336,-7.2207c-3.57816,3.4574 -6.76856,7.06044 -9.8125,11c-0.45576,0.58523 -0.91153,1.17047 -1.3811,1.77344c-1.60799,2.07106 -3.20804,4.14806 -4.8064,6.22656c-0.66161,0.8598 -1.32322,1.71961 -2.00488,2.60547c-2.14783,2.79542 -4.29122,5.59418 -6.43262,8.39453c-0.68618,0.8959 -1.37237,1.7918 -2.07935,2.71484c-3.30969,4.34379 -6.52889,8.69133 -9.48315,13.28516c-4.01141,-1.37534 -6.74705,-3.31016 -10,-6c7.7707,-11.24332 15.86405,-22.15758 24.3335,-32.88379c1.58158,-2.00837 3.15164,-4.02509 4.71728,-6.0459c5.09515,-6.56314 10.30903,-12.96145 15.94922,-19.07031z"/>
  <path id="svg_37" fill="#0A3051" d="m435.08354,313.45613c4.02943,1.34314 4.85074,3.79613 6.6875,7.375c0.3445,0.66193 0.689,1.32387 1.04395,2.00586c7.81595,15.32011 15.56064,32.16755 16.26855,49.61914c0.03996,0.88559 0.07992,1.77117 0.12109,2.68359c0.28518,12.63158 -1.59565,24.51952 -6.12109,36.31641c-0.33,0 -0.66,0 -1,0c-0.10957,-0.86883 -0.21914,-1.73766 -0.33203,-2.63281c-0.15856,-1.15242 -0.31711,-2.30485 -0.48047,-3.49219c-0.15082,-1.13695 -0.30164,-2.27391 -0.45703,-3.44531c-0.54621,-3.43667 -0.54621,-3.43667 -2.30859,-6.14844c-2.11361,-4.87755 -1.56279,-9.41434 -1.35938,-14.65625c0.39877,-22.74207 -8.92181,-40.81774 -19.0625,-60.625c2.33333,-2.33333 4.66667,-4.66667 7,-7z"/>
  <path id="svg_38" fill="#3F92BF" d="m494.08354,206.45613c10.29972,4.30151 18.22805,16.6691 24.7627,25.35693c1.10647,1.46933 2.22941,2.92622 3.35449,4.38135c4.11866,5.4502 7.71726,11.14042 11.19531,17.01172c0.42096,0.70939 0.84192,1.41877 1.27563,2.14966c2.47966,4.26289 4.5626,8.52802 6.41187,13.10034c-5.625,3 -5.625,3 -9,3c-0.495,1.485 -0.495,1.485 -1,3c-0.58266,-1.17434 -1.16531,-2.34867 -1.76562,-3.55859c-10.81193,-21.39548 -24.88585,-39.89978 -42.23438,-56.44141c1.99856,-3.49891 3.60334,-5.7746 7,-8z"/>
  <path id="svg_40" fill="#3E91BE" d="m198.08354,234.45613c1.69142,0.08963 3.3796,0.24578 5.0625,0.4375c1.37865,0.15275 1.37865,0.15275 2.78516,0.30859c0.71027,0.08379 1.42054,0.16758 2.15234,0.25391c-0.60524,3.0358 -1.54367,5.07641 -3.33594,7.58984c-0.7234,1.03798 -0.7234,1.03798 -1.46142,2.09693c-0.52062,0.74274 -1.04124,1.48548 -1.57764,2.25073c-7.70623,11.24905 -14.67375,23.32612 -19.625,36.0625c-0.66,-0.33 -1.32,-0.66 -2,-1c-1.70703,-0.06996 -3.41668,-0.0844 -5.125,-0.0625c-0.91008,0.00902 -1.82016,0.01805 -2.75781,0.02734c-0.69867,0.01161 -1.39735,0.02321 -2.11719,0.03516c2.02201,-6.85357 4.83198,-13.01499 8.1875,-19.3125c0.48614,-0.91846 0.97228,-1.83691 1.47314,-2.7832c4.88275,-9.10674 9.84046,-17.68128 17.33936,-24.9043c0.33,-0.33 0.66,-0.66 1,-1z"/>
  <path id="svg_47" fill="#0B3354" d="m401.08354,427.45613c0.495,0.99 0.495,0.99 1,2c-5.87213,12.19596 -15.48919,20.18579 -28,25c-6.17307,1.79282 -12.15234,2.38704 -18.5625,2.375c-0.85972,-0.00089 -1.71945,-0.00177 -2.60522,-0.00269c-8.01816,-0.14581 -19.42558,-0.64219 -25.76587,-6.00903c-0.35192,-0.44988 -0.70383,-0.89976 -1.06641,-1.36328c1.68996,0.23783 1.68996,0.23783 3.41406,0.48047c22.25699,2.75158 45.02003,-0.64176 63.16016,-14.47656c3.03174,-2.50449 5.75645,-5.11815 8.42578,-8.00391z"/>
  <path id="svg_52" fill="#0E3454" d="m397.08354,231.45613c1.27996,2.55991 0.71434,3.28168 0,6c-1.10385,11.85284 1.97353,21.90946 8,32c-2.79522,-0.22745 -5.58377,-0.48075 -8.375,-0.75c-1.19109,-0.09281 -1.19109,-0.09281 -2.40625,-0.1875c-5.80567,-0.59041 -5.80567,-0.59041 -7.75,-2.8125c-0.53573,-2.57149 -0.66288,-4.87322 -0.59375,-7.5c0.02707,-1.33805 0.02707,-1.33805 0.05469,-2.70312c0.0232,-0.67547 0.0464,-1.35094 0.07031,-2.04688c1.32,0.33 2.64,0.66 4,1c-0.33,-0.66 -0.66,-1.32 -1,-2c-0.76171,-7.10932 1.21008,-11.9895 5,-18c1.66797,-1.79297 1.66797,-1.79297 3,-3z"/>
  <path id="svg_55" fill="#71B1CD" d="m387.08354,364.45613c15.4989,2.2974 33.9769,10.19056 43.58594,23.13672c1.10156,1.92578 1.10156,1.92578 2.41406,4.86328c-2.73437,0.28516 -2.73437,0.28516 -6,0c-2.20312,-1.94141 -2.20312,-1.94141 -4.25,-4.5625c-9.6157,-11.27631 -22.51299,-16.39992 -35.75,-22.4375c0,-0.33 0,-0.66 0,-1z"/>
  <path id="svg_57" fill="#A6D5E4" d="m395.08354,284.45613c5.24415,-0.31465 8.53939,0.16143 13,3c3,3.3 3,3.3 3,6c-9.1922,0.30641 -9.1922,0.30641 -12,-2c-1.51186,-2.27304 -2.73891,-4.56789 -4,-7z"/>
  <path id="svg_58" fill="#A6D7E6" d="m319.08354,250.45613c0,3.78405 -1.1678,5.11033 -3.3125,8.1875c-0.61488,0.90105 -1.22977,1.80211 -1.86328,2.73047c-0.60199,0.68707 -1.20399,1.37414 -1.82422,2.08203c-0.99,0 -1.98,0 -3,0c1.51553,-3.47775 3.57735,-5.9558 6.125,-8.75c0.72445,-0.79922 1.44891,-1.59844 2.19531,-2.42187c0.83145,-0.90493 0.83145,-0.90493 1.67969,-1.82813zm-12,13c0.99,0.495 0.99,0.495 2,1c-0.99,0.495 -0.99,0.495 -2,1c0,-0.66 0,-1.32 0,-2z"/>
  <path id="svg_59" fill="#66A3BF" d="m355.08354,306.45613c0.33,0.66 0.66,1.32 1,2c-0.33,0.99 -0.66,1.98 -1,3c-0.2218,1.89213 -0.40614,3.78884 -0.5625,5.6875c-0.12568,1.4908 -0.12568,1.4908 -0.25391,3.01172c-0.06058,0.75926 -0.12117,1.51851 -0.18359,2.30078c-0.99,-0.33 -1.98,-0.66 -3,-1c0.59453,-10.55809 0.59453,-10.55809 4,-15z"/>
  <path id="svg_61" fill="#5AA3C5" d="m306.08354,365.45613c2.31,0 4.62,0 7,0c-0.9573,1.12588 -1.91588,2.25067 -2.875,3.375c-0.53367,0.62648 -1.06734,1.25297 -1.61719,1.89844c-1.12213,1.28493 -2.30153,2.52028 -3.50781,3.72656c0.33,-2.97 0.66,-5.94 1,-9z"/>
  <path id="svg_62" fill="#5F9AB7" d="m387.08354,364.45613c5.46864,1.01591 10.7639,2.07091 16,4c-1.60937,1.14844 -1.60937,1.14844 -4,2c-3.01562,-0.89844 -3.01562,-0.89844 -6.25,-2.375c-1.07766,-0.48211 -2.15531,-0.96422 -3.26562,-1.46094c-0.81985,-0.38414 -1.63969,-0.76828 -2.48438,-1.16406c0,-0.33 0,-0.66 0,-1z"/>
 </g>
</svg>
