<svg width="717" height="710" xmlns="http://www.w3.org/2000/svg">
 <path fill="#7BBDD9" d="m356.021 153.144 2.734.003c17.977.046 34.997 1.332 52.329 6.31l2.497.687c21.894 6.097 43.3 15.572 61.503 29.312l1.756 1.303c8.946 6.67 17.177 13.999 25.244 21.697l1.98 1.82c6.067 5.736 10.972 12.56 16.02 19.18l2.132 2.754c9.803 12.998 17.363 27.366 23.868 42.246l1.394 3.149c8.497 20.555 12.88 43.67 13.606 65.851l.082 2.208c1.527 45.77-13.179 93.683-43.082 128.792l-2.485 3.04c-18.712 22.777-41.35 40.454-67.515 53.96l-2.092 1.093c-43.859 22.672-98.054 26.11-145.033 11.595-2.64-.857-5.26-1.762-7.875-2.688l-2.13-.745c-28.372-10.065-53.197-26.528-74.87-47.255l-2.809-2.648c-7.153-6.92-13.316-14.345-19.191-22.352l-1.245-1.684c-29.988-41.147-42.369-93.644-35.234-143.92 4.939-30.973 15.953-60.914 34.479-86.396l2.07-2.894c11.04-15.095 23.257-28.48 37.93-40.106l2.89-2.371c25.048-20.07 55.537-33.863 87.11-39.629l2.916-.537c10.347-1.7 20.559-1.817 31.021-1.775z"/>
 <path fill="#8AC7DF" d="m456.084 206.456 1.583 1.148c7.609 5.545 14.49 11.652 21.167 18.29l2.096 2.08c5.544 5.624 5.544 5.624 7.154 9.482-.067 2.024-.067 2.024-1 4-2.153 1.852-2.153 1.852-4.938 3.625-.896.59-1.792 1.18-2.715 1.79-9.834 4.658-21.537 4.39-32.239 5.187-18.77 1.037-18.77 1.037-36.108 7.398-1.439 2.772-1.439 2.772-1 6 1.635 2.468 3.125 4.375 5.125 6.5l2.945 3.281 1.48 1.609c1.436 1.595 2.791 3.236 4.141 4.903 4.585 5.376 9.613 6.13 16.309 6.707.684 8.043-2.17 14.077-7.25 20.25-4.94 5.31-10.675 8.981-17.75 10.75h-4l-1-5c-9.648-1.642-17.107-1.602-26 3-1.708 1.28-3.394 2.595-5 4h-2c2.892-6.484 8.796-10.65 15.265-13.305 5.737-1.458 11.9-1.592 17.735-.695 2.953 1.906 2.953 1.906 5 4v2c8.446-4.171 14.314-7.302 17.812-16.375l1.188-3.625-2.012-.297c-6.496-1.1-10.248-2.39-14.559-7.601-5.829-7.031-12.194-10.94-21.43-12.102-14.62-.894-26.11 1.63-39.066 8.477-2.933 1.523-2.933 1.523-5.933 2.523 3.822.253 3.822.253 6.437-1 2.72-1.062 4.671-1.165 7.563-1-2.122 2.122-3.774 2.93-6.5 4.125l-2.407 1.07c-2.093.805-2.093.805-4.093.805l-.813 1.637a438.914 438.914 0 0 1-2.625 5.133c-6.145 11.967-8.897 23.607-5.39 37.007 6.309 16.934 18.986 25.108 33.953 33.786 16.106 9.365 30.267 19.89 36.511 38.316 2.262 13.208-.188 25.004-7.91 35.973-2.953 3.675-6.28 6.938-9.726 10.148l-6-2c0-4.514.284-4.734 3.25-7.75 3.548-3.83 5.627-7.495 7.75-12.25l-1.293 1.469c-10.451 11.205-24.537 18.273-39.707 20.531-2.437.067-4.875.085-7.313.063l-3.8-.028-2.887-.035-1-4 10-3-3.114-.113c-15.586-.689-32.412-3.938-43.68-15.77-5.233-6.59-7.937-13.166-7.519-21.656.544-4.286.995-7.47 4.313-10.46 3.777-1.383 7.324-2.24 11.273-3.016 4.58-1.21 8.112-2.659 10.894-6.666 1.088-1.93 2.069-3.88 3.02-5.881 4.2-8.571 4.2-8.571 6.813-10.438h3v-2l-11 3 .14-3.656c.038-1.615.074-3.23.11-4.844l.101-2.398c.095-5.81-.976-10.289-4.351-15.102l-2-1 .105 1.977c.217 7.02-.576 11.22-5.418 16.586a145.685 145.685 0 0 1-5.75 4.937c-2.726 2.32-4.81 4.636-6.937 7.5v-6c-5.812 7.226-8.609 14.673-8 24l1.214-1.723c4.724-6.416 10.517-13.784 18.786-15.277l-2 1.938a500.2 500.2 0 0 0-3 3.062l-1.938 1.985c-6.287 6.715-10.245 13.356-12.375 22.328-1.047 3.726-2.082 5.514-5.312 7.687-4.263 2.242-8.658 3.213-13.375 4-9.474-24.874-12.114-51.725-1.032-76.695 11.793-25.353 26.576-48.745 43.032-71.305l1.694-2.334c7.122-9.798 14.385-19.46 21.93-28.935 2.535-3.19 5.047-6.4 7.563-9.606l2.793-3.555 2.02-2.57c4.587 4.308 8.315 9.128 12.125 14.125 1.23 1.608 2.461 3.215 3.695 4.82l1.633 2.142a51.929 51.929 0 0 0 4.547 4.913 233.48 233.48 0 0 0 1.562-4.187l.879-2.356c.692-3.045.603-4.496-.441-7.457-1.64-2.48-3.523-4.728-5.438-7a3061.132 3061.132 0 0 1-3.262-3.973l-1.665-2.02c-2.525-3.1-4.96-6.267-7.385-9.444l-1.303-1.702c-.984-1.286-1.966-2.573-2.947-3.86-3.07 1.341-4.888 2.723-6.997 5.316l-1.672 2.038-1.769 2.208-1.865 2.299c-9.88 12.243-19.288 24.816-28.444 37.607a798.097 798.097 0 0 1-6.539 9c-27.538 37.459-56.863 81.489-49.527 130.031 2.948 17.86 9.635 33.924 21.813 47.5l2.46 2.746c15.553 16.442 37.117 26.634 59.54 29.254l2.812.336c23.22 2.335 48.36.238 67.66-14.184 9.617-8.075 17.494-20.392 18.72-33.16.407-10.678.296-19.473-5.192-28.992l-1.422-2.48c-9.62-15.438-25.577-22.315-41.578-29.52 6.485-2.162 15.402 2.826 21.492 5.578 14.249 7.313 24.857 16.817 31.008 31.86 2.692 8.82 1.833 18.444 1.5 27.562 2.705-6.732 4.524-12.746 5-20 2.168.506 4 1 6 2 8.145-23.447 8.516-49.404-2.313-72.187l-1.05-1.98c-.798-2.295-.415-3.572.363-5.833 12.967 12.416 18.742 28.65 19.347 46.39.328 25.606-10.787 50.283-28.347 68.61-3.519 3.217-7.192 6.137-11 9l-2.614 2.05c-7.33 5.593-15.165 9.847-23.386 13.95l-2.91 1.473c-27.525 13.255-59.052 12.216-87.45 2.487-23.815-8.67-42.908-24.997-53.992-47.917-11.572-25.141-12.956-51.683-4.648-78.043l.778-2.475c7.384-22.78 20.225-42.047 34.188-61.287 2.192-3.01 2.192-3.01 4.034-6.238-4.292.14-8.584.288-12.875.438l-3.649.119c-5.25.185-10.464.393-15.687.967-14.676 1.6-34.547 2.961-47.79-4.524l-2.124-2.25c-.62-.577-1.238-1.155-1.875-1.75-2.708.14-2.708.14-5 1 3.941-13.021 12.419-23.703 21-34l1.452-1.748a685.91 685.91 0 0 1 7.075-8.361 187.726 187.726 0 0 0 4.226-5.094c24.018-29.616 68.68-45.207 105.372-49.047 40.714-3.768 79.771 5.671 112.875 30.25z"/>
 <path fill="#4C9DC5" d="M535.084 399.456c1.437 4.525.02 7.92-1.5 12.25l-.835 2.42c-15.424 43.829-47.135 81.06-88.665 102.33l-2.16 1.109c-16.961 8.598-34.17 14.35-52.84 17.891l-3.446.688c-45.003 7.518-93.895-4.9-131.078-30.875l-2.476-1.813-2.227-1.625c-29.71-22.471-58.052-55.084-66.773-92.375-.259-2.77-.215-5.214 0-8h2l1.539 3.184c3.709 7.597 7.372 15.026 12.46 21.816l1.352 1.918c4.516 5.917 11.292 9.788 18.649 11.082 11.686.676 22.58-.584 34-3l3.066-.644a339.8 339.8 0 0 0 5.934-1.356l1.94 2.563a919.022 919.022 0 0 0 6.804 8.826c1.011 1.298 2.017 2.6 3.021 3.904 16.233 19.881 43.892 29.86 68.718 32.5 11.797.969 23.979 1.058 35.517-1.793l3.832-.894c11.662-2.948 21.762-8.174 32.168-14.106l3.105-1.734a77.141 77.141 0 0 0 11.207-7.828c13.731-10.932 32.578-11.864 49.397-12.522 15.312-.629 29.328-2.354 40.487-13.762 3.358-4.01 5.653-8.592 8.054-13.216l1.562-2.932a512.8 512.8 0 0 0 7.188-14.006z"/>
 <path fill="#092F50" d="M357.084 204.456c3.177 1.363 4.87 2.755 6.918 5.527l1.6 2.136 1.669 2.275c4.668 6.339 4.668 6.339 9.7 12.386l2.488 2.801 2.21 2.383c1.99 3.506 1.335 5.648.415 9.492-.835 2.453-1.896 4.647-3 7-5.128-4.723-9.136-10.254-13.313-15.812l-2.244-2.967a3210.384 3210.384 0 0 1-5.443-7.22c-3.579 3.457-6.77 7.06-9.813 11l-1.396 1.795a2335.945 2335.945 0 0 0-4.791 6.204l-1.893 2.444c-8.233 10.647-16.287 21.359-23.766 32.55a1177.389 1177.389 0 0 1-4.295 6.362c-22.74 33.634-46.704 69.627-38.796 112.082 1.247 5.927 2.91 11.613 4.98 17.304.77 2.258.77 2.258.77 4.258a632.459 632.459 0 0 0 5.25-1.812l2.953-1.02c2.662-1.112 4.531-2.419 6.797-4.168h2l.261-1.836c2.19-13.06 8.737-20.989 17.739-30.164-4.248 2.279-7.602 4.164-10.688 7.938l-1.734 2.09-1.578 1.972-2.438 3-1.562 2c-.527-10.881 1.84-18.706 9-27 1 2 1 2 1 5l1.625-2.187c2.608-3.089 5.161-5.368 8.375-7.813h2c2.735-5.275 4.257-9.28 4.125-15.312l-.055-3.239-.07-2.449c4.084 3.754 7.581 7.336 8.237 13.078.057 2.273.025 4.524-.05 6.797l-.041 2.375a488.688 488.688 0 0 1-.146 5.75l2.324-.992c2.773-1.044 4.743-1.175 7.676-1.008v2l-2.25 1.16c-3.7 2.476-4.888 5.329-6.75 9.278-2.738 5.769-5.123 9.76-11.176 12.574-4.961 1.569-9.639 2.517-14.824 2.988-3.285 8.1-4.467 14.844-1.313 23.25 4.39 9.705 11.71 15.08 21.52 19.047 7.967 2.712 15.233 3.885 23.605 4.266l2.678.13c2.17.106 4.34.207 6.51.307-3.005 2.003-4.71 2.493-8.188 3.125l-2.73.508-2.082.367 1 3c17.582.975 34.894-3.491 48.243-15.418a225.193 225.193 0 0 0 6.757-6.582l1 2c-3.113 6.002-6.915 11.531-12 16l1 3c2.28.827 2.28.827 5 1 8.479-5.288 13.52-15.777 16.668-24.945 2.074-12.839.065-23.91-7.293-34.68-8.284-10.648-17.998-16.796-29.5-23.508a231.44 231.44 0 0 1-16.875-10.867l-1.81-1.246c-7.777-5.839-13.835-16.112-15.772-25.605-1.868-14.069.579-25.922 8.433-37.79 3.63-3.985 8.103-5.707 13.149-7.359-4.078.782-8.017 1.828-12 3v-2c12.996-10.004 28.948-13.366 45-12 8.77 1.557 14.908 4.53 21 11 5.367 5.493 9.492 8.086 17 10-2.235 8.175-5.121 13.527-12.688 17.875-3.976 2.125-3.976 2.125-6.312 2.125L412.9 311c-3.914-3.534-6.761-3.288-11.865-3.193-8.334.429-15.711 3.913-21.514 9.9-4.4 5.866-6.256 13.517-5.437 20.75 1.56 4.308 3.543 8.14 6 12-9.065-2.324-16.826-8.266-22-16-3.952-7.588-4.488-14.567-4-23v-2c-2.745 7.414-3.414 14.656-.938 22.266 5.57 12.049 14.888 17.984 26.938 22.734a478.249 478.249 0 0 0 17.054 5.629c17.563 5.556 34.614 14.423 43.508 31.344 4.987 10.753 6.366 22.051 3.543 33.726-.928 2.509-1.904 4.913-3.105 7.301-.95-2.846-1.07-4.266-.922-7.176.575-15.93-1.793-28.654-13.078-40.824-9.925-9.093-21.928-15.02-35-18l1.737.835c17.481 8.504 32.456 17.588 40.7 36.103 3.888 11.848 2.754 25.86-2.437 37.062l-1.063 2.375c-7.028 14.056-19.362 22.666-33.937 27.625l-2.426.836c-17.711 5.706-35.43 4.836-53.574 2.164l-2.762-.402c-24.081-4.18-46.405-18.16-60.79-37.988-10.117-14.762-16.724-32.611-17.448-50.61l-.157-3.203c-.573-22.452 5.667-42.16 16.157-61.797l1.21-2.3c10.276-19.47 22.108-37.818 35.185-55.514a603.316 603.316 0 0 0 4.815-6.67c26.738-37.464 26.738-37.464 39.79-50.516z"/>
 <path fill="#1B5F90" d="m356.021 153.144 2.734.003c17.977.046 34.997 1.332 52.329 6.31l2.497.687c21.894 6.097 43.3 15.572 61.503 29.312l1.756 1.303c8.946 6.67 17.177 13.999 25.244 21.697l1.98 1.82c6.067 5.736 10.972 12.56 16.02 19.18l2.132 2.754c9.803 12.998 17.363 27.366 23.868 42.246l1.394 3.149c8.497 20.555 12.88 43.67 13.606 65.851l.082 2.208c1.527 45.77-13.179 93.683-43.082 128.792l-2.485 3.04c-18.712 22.777-41.35 40.454-67.515 53.96l-2.092 1.093c-43.859 22.672-98.054 26.11-145.033 11.595-2.64-.857-5.26-1.762-7.875-2.688l-2.13-.745c-28.372-10.065-53.197-26.528-74.87-47.255l-2.809-2.648c-7.153-6.92-13.316-14.345-19.191-22.352l-1.245-1.684c-29.988-41.147-42.369-93.644-35.234-143.92 4.939-30.973 15.953-60.914 34.479-86.396l2.07-2.894c11.04-15.095 23.257-28.48 37.93-40.106l2.89-2.371c25.048-20.07 55.537-33.863 87.11-39.629l2.916-.537c10.347-1.7 20.559-1.817 31.021-1.775zm-112.937 49.312-1.578 1.231c-36.27 28.662-60.258 67.82-70.422 112.77l-.618 2.589c-10.355 46.598 1.05 96.874 25.817 137.039 6.108 9.396 13.227 17.866 20.777 26.125a109.726 109.726 0 0 1 4.586 5.434c3.188 3.678 6.686 6.72 10.438 9.812l3.03 2.504c30.82 25.034 70.372 44.344 110.778 44.734l2.532.03c18.203.17 35.88.14 53.66-4.268l2.775-.682a264.766 264.766 0 0 0 18.225-5.318l2.006-.662c17.616-6.01 34.352-15.935 48.994-27.338l2.8-2.164c11.567-9.206 22.198-19.086 31.2-30.836l2.418-2.976c26.524-32.876 39.057-74.158 38.957-116.024l-.002-2.593c-.04-13.824-.993-26.954-4.373-40.407l-.634-2.657c-10.073-41.582-36.68-82.01-71.366-107.343l-2.942-2.164c-21.482-15.34-44.981-25.905-70.746-31.586l-2.73-.602a187.16 187.16 0 0 0-39.02-4.023l-2.085.002c-40.184.144-80.847 14.54-112.477 39.373z"/><path fill="#63ADCE" d="m342.084 325.456.625 3.813c3.01 13.615 12.088 22.793 23.375 30.187 3.678 2.239 7.4 4.403 11.125 6.563 16.106 9.365 30.267 19.89 36.511 38.316 2.262 13.208-.188 25.004-7.91 35.973-2.953 3.675-6.28 6.938-9.726 10.148l-6-2c0-4.514.284-4.734 3.25-7.75 3.548-3.83 5.627-7.495 7.75-12.25l-1.293 1.469c-10.451 11.205-24.537 18.273-39.707 20.531-2.437.067-4.875.085-7.313.063l-3.8-.028-2.887-.035-1-4 10-3-3.114-.113c-15.586-.689-32.412-3.938-43.68-15.77-5.233-6.59-7.937-13.166-7.519-21.656.544-4.286.995-7.47 4.313-10.46 3.777-1.383 7.324-2.24 11.273-3.016 4.58-1.21 8.112-2.659 10.894-6.666 1.088-1.93 2.069-3.88 3.02-5.881 4.2-8.571 4.2-8.571 6.813-10.438h3v-2l-11 3 .14-3.656c.038-1.615.074-3.23.11-4.844l.101-2.398c.095-5.81-.976-10.289-4.351-15.102l-2-1 .105 1.977c.217 7.02-.576 11.22-5.418 16.586a145.685 145.685 0 0 1-5.75 4.937c-2.726 2.32-4.81 4.636-6.937 7.5v-6c-5.812 7.226-8.609 14.673-8 24l1.214-1.723c4.724-6.416 10.517-13.784 18.786-15.277l-2 1.938a500.2 500.2 0 0 0-3 3.062l-1.938 1.985c-6.287 6.715-10.245 13.356-12.375 22.328-1.047 3.726-2.082 5.514-5.312 7.687-4.263 2.242-8.658 3.213-13.375 4-9.786-25.695-11.493-51.644-.696-77.34 1.355-3.003 2.824-5.944 4.302-8.889l1.36-2.712c.34-.68.682-1.359 1.034-2.059 7.474-.168 14.949-.328 22.424-.482 2.543-.053 5.086-.109 7.63-.166 3.653-.082 7.307-.157 10.961-.23l3.45-.083 3.215-.06 2.826-.061c2.33.077 4.269.417 6.494 1.082z"/>
 <path fill="#65AFD0" d="M198.084 275.456c1 2 1 2 .562 3.904l-.777 2.315-.83 2.578a844.994 844.994 0 0 1-1.774 5.313c-2.564 8.022-3.944 17.037-.181 24.89 5.443 2.096 10.67 2.364 16.457 2.527l5.564.213c2.878.1 5.756.196 8.634.29 9.93.33 19.726.798 29.544 2.412l2.266.37c3.437.617 5.588 1.224 8.535 3.188l-1.32 2.613c-5.01 10.166-8.587 20.498-11.68 31.387l-1.04 3.442c-6.76 25.743.427 49.79 10.04 73.558-15.675 5.285-35.653 10.26-51.645 3.317-12.966-7.247-19.491-21.279-25.355-34.317v-2h-2l-1 4c-10.454-37.146-11.448-80.257 5-116l1 4 1.68-3.176c.73-1.379 1.463-2.758 2.195-4.136l1.105-2.092 1.074-2.022.984-1.856c.907-1.62 1.932-3.173 2.962-4.718zM519.084 277.456c1.624 1.547 3.046 3.063 4.375 4.875 1.59 2.25 1.59 2.25 4 4.063 13.818 13.9 14.773 47.028 14.875 65.312-.044 10.69-.724 21.173-2.25 31.75l-.341 2.41a447.61 447.61 0 0 1-1.097 7.09l-.333 2.16c-.686 3.908-1.48 5.625-4.23 8.34a74.65 74.65 0 0 0-2.382 4.535l-1.335 2.69-1.407 2.838c-6.505 12.73-13.578 22.81-27.563 27.687-5.461 1.717-10.628 2.393-16.352 2.61-1.39.06-2.781.122-4.172.185l-2.187.1c-13.42.637-25.803 2-38.601 6.355l-3.489 1.156-2.511.844c1.97-2.554 3.935-4.937 6.25-7.187 11.817-12.086 19.253-25.633 23.75-41.813l.968-3.46c4.596-18.598 2.509-36.587-6.504-53.43-1.966-4.174-2.315-6.603-1.464-11.11 4.96-6.057 13.726-6.628 21-7.5l2.852-.371a812.396 812.396 0 0 1 15.64-1.844c1.066-.12 2.132-.242 3.23-.367 2.05-.231 4.103-.45 6.156-.652 5.917-.67 11.197-1.739 16.122-5.266 3.858-5.787 2.728-14.05 1.5-20.71-1.193-5.46-2.572-10.868-4.041-16.26-.46-2.03-.46-2.03-.46-5.03z"/><path fill="#99D2E5" d="M478.334 205.36c4.155 3.694 8.157 7.534 12.099 11.455a326.015 326.015 0 0 0 4.326 4.204c24.004 23.215 42.593 55.694 49.855 88.337.326 1.457.667 2.91 1.02 4.36 10.94 45.746 2.178 97.42-21.816 137.646-26.302 42.346-66.553 74.336-114.984 87.282l-2.665.72c-15.268 3.903-30.366 5.598-46.102 5.483-2.615-.016-5.228 0-7.843.02-14.31.018-27.822-1.953-41.64-5.723l-2.375-.642c-33.34-9.221-62.954-27.255-87.125-52.046l-1.84-1.703c-13.075-12.389-22.76-27.483-31.16-43.297l-1.022-1.91c-21.776-41.471-25.823-92.23-12.889-137.02 7.436-23.282 18.247-44.554 32.91-64.07l2.133-2.879c19.366-24.872 44.512-42.934 72.868-56.12.656-.308 1.313-.614 1.99-.93 12.236-5.62 24.897-9.116 38.01-12.07l2.363-.549c51.951-11.585 113.491 5.287 153.887 39.451zm-178.461-24.045c-2.696 1.103-5.423 2.053-8.174 3.003-14.981 5.276-29.218 13.22-41.615 23.138l-3.723 2.89c-36.285 28.49-60.354 67.786-69.277 113.11l-.747 3.738c-5.732 34.907.28 73.624 15.747 105.262l1.054 2.188c12.017 24.639 29.339 45.952 50.946 62.812l1.668 1.31c37.922 29.55 86.242 43.34 134.109 38.159 10.242-1.35 20.295-3.641 30.223-6.469l3.445-.945c8.465-2.557 16.33-6.137 24.305-9.93l3.156-1.496c25.414-12.351 47.822-31.505 64.824-53.958a367.483 367.483 0 0 1 3.395-4.382c27.232-35.688 37.316-84.307 32.105-128.415-2.622-18.883-8.255-36.606-16.23-53.874l-.847-1.887c-7.205-16-17.54-30.061-29.153-43.113l-1.961-2.328c-3.984-4.723-8.322-8.696-13.04-12.672l-2.835-2.531c-7.628-6.751-15.67-12.227-24.422-17.42a129.288 129.288 0 0 1-4.242-2.69c-40.655-26.425-104.209-32.43-148.711-13.5z"/>
 <path fill="#4E9EC5" d="m356.021 153.144 2.734.003c17.977.046 34.997 1.332 52.329 6.31l2.497.687c21.894 6.097 43.3 15.572 61.503 29.312l1.756 1.303c8.946 6.67 17.177 13.999 25.244 21.697l1.98 1.82c6.067 5.736 10.972 12.56 16.02 19.18l2.132 2.754c9.803 12.998 17.363 27.366 23.868 42.246l1.394 3.149c8.286 20.044 13.55 43.105 12.606 64.851h-9l-1 21h-1l-.029-2.664c-.24-18.083-.798-35.649-4.971-53.336l-.63-2.683c-9.99-41.166-36.08-81.146-70.37-106.317l-2.946-2.168c-21.486-15.336-44.977-25.901-70.742-31.582l-2.73-.602a187.16 187.16 0 0 0-39.02-4.023l-2.085.002c-40.173.144-80.86 14.532-112.477 39.373l-1.594 1.247c-35.833 28.407-59.355 67.303-69.406 111.753l-.618 2.59c-3.371 15.172-3.803 30.938-4.382 46.41l-10 1-1 4c-.966-46.595 8.081-91.598 36-130l2.07-2.894c11.04-15.095 23.257-28.48 37.93-40.106l2.89-2.371c25.048-20.07 55.537-33.863 87.11-39.629l2.916-.537c10.347-1.7 20.559-1.817 31.021-1.775z"/>
 <path fill="#ABDBEA" d="M319.084 250.456c0 3.3-.337 3.83-2.204 6.379l-1.453 2.013-1.593 2.17c-1.112 1.546-2.221 3.093-3.329 4.641l-1.728 2.412c-19.588 27.586-40.958 58.487-46.693 92.385l-.399 2.344c-3.378 24.465 2.106 50.988 16.238 71.3 1.964 2.55 4.012 4.96 6.16 7.356l2.461 2.746c15.553 16.442 37.117 26.634 59.54 29.254l2.812.336c23.22 2.335 48.36.238 67.66-14.184 9.617-8.075 17.494-20.392 18.72-33.16.407-10.678.296-19.473-5.192-28.992l-1.422-2.48c-9.62-15.438-25.577-22.315-41.578-29.52 6.485-2.162 15.402 2.826 21.492 5.578 14.249 7.313 24.857 16.817 31.008 31.86 2.692 8.82 1.833 18.444 1.5 27.562 2.705-6.732 4.524-12.746 5-20 2.168.506 4 1 6 2 8.145-23.447 8.516-49.404-2.313-72.187l-1.05-1.98c-.798-2.295-.415-3.572.363-5.833 12.967 12.416 18.742 28.65 19.347 46.39.328 25.606-10.787 50.283-28.347 68.61-3.519 3.217-7.192 6.137-11 9l-2.614 2.05c-7.33 5.593-15.165 9.847-23.386 13.95l-2.91 1.473c-27.525 13.255-59.052 12.216-87.45 2.487-23.815-8.67-42.908-24.997-53.992-47.917-11.572-25.141-12.956-51.683-4.648-78.043l.778-2.475c9.737-30.04 29.01-56.623 49.429-80.373 1.822-2.02 1.822-2.02 2.793-4.152h2l.742-1.703c1.487-2.716 3.298-4.76 5.383-7.047l2.195-2.422 1.68-1.828z"/>
 <path fill="#AEDFEE" d="M478.334 205.36c4.155 3.694 8.157 7.534 12.099 11.455a326.015 326.015 0 0 0 4.326 4.204c31.619 30.58 53.73 76.985 54.762 121.25-.004 2.957-.004 2.957-.437 5.187-3 2-3 2-7 2l-.196-1.946c-4.512-43.616-18.318-80.53-46.804-114.054l-2.102-2.535c-3.924-4.65-8.254-8.55-12.898-12.465l-2.836-2.531c-7.628-6.751-15.67-12.227-24.422-17.42a129.288 129.288 0 0 1-4.242-2.69c-37.254-24.214-87.06-28.094-129.5-19.359-6.635 1.513-12.944 3.194-19.211 5.86-2.696 1.102-5.423 2.052-8.174 3.002-14.98 5.276-29.22 13.218-41.615 23.138l-3.758 2.926c-40.601 31.945-64.19 76.913-70.431 127.964-.278 2.37-.55 4.74-.811 7.11l-7-2c.939-38.891 15.78-75.099 39-106l2.132-2.879c19.366-24.872 44.512-42.934 72.868-56.12.656-.308 1.313-.614 1.99-.93 12.236-5.62 24.897-9.116 38.01-12.07l2.363-.549c51.951-11.585 113.491 5.287 153.887 39.451z"/>
 <path fill="#69B1D1" d="m355.084 306.456 1 2-1 3c-.952 10.106.622 19.142 7 27.25 4.506 4.773 10.242 7.725 16 10.75l-.899-1.793c-2.822-5.653-4.494-9.792-4.101-16.207 18.602-7.136 37.436-6.247 57-6l-2-6c1.092-1.033 2.2-2.051 3.312-3.062l1.863-1.723 1.825-1.215c4.029 1.343 4.85 3.796 6.687 7.375l1.044 2.006c7.816 15.32 15.56 32.168 16.269 49.62l.12 2.683c.293 12.956-1.877 25.1-6.12 37.316-3 0-3 0-7-2v9h-1l-.043-3.297c-.385-14.444-4.043-25.753-13.957-36.703-12.229-10.965-26.71-16.197-42.082-21.102-14.244-4.571-28.575-10.068-35.856-24.023-3.18-7.631-3.431-15.82-.625-23.625 1.563-3.25 1.563-3.25 2.563-4.25z"/>
 <path fill="#4999C1" d="M322.084 341.456c4.084 3.754 7.581 7.336 8.237 13.078.057 2.273.025 4.524-.05 6.797l-.041 2.375a488.688 488.688 0 0 1-.146 5.75l2.324-.992c2.773-1.044 4.743-1.175 7.676-1.008v2l-2.25 1.16c-3.7 2.476-4.888 5.329-6.75 9.278-2.738 5.769-5.123 9.76-11.176 12.574-4.961 1.569-9.639 2.517-14.824 2.988-3.284 8.1-4.467 14.844-1.313 23.25 4.39 9.705 11.71 15.08 21.52 19.047 7.967 2.712 15.234 3.885 23.605 4.266l2.678.13c2.17.106 4.34.207 6.51.307-3.005 2.003-4.71 2.493-8.188 3.125l-2.73.508-2.082.367 1 3c17.582.975 34.894-3.491 48.243-15.418a225.193 225.193 0 0 0 6.757-6.582l1 2c-3.113 6.002-6.915 11.531-12 16l1 3 3 1c-1.233 3.7-3.01 4.707-6.278 6.664-19.856 9.743-41.159 9.366-61.852 2.386-19.121-6.854-36.738-21.75-45.87-40.05v-2l2.046-.77 2.704-1.042 2.671-1.02c2.51-1.137 4.396-2.512 6.579-4.168h2l.261-1.836c2.19-13.06 8.737-20.989 17.739-30.164-4.248 2.279-7.602 4.164-10.688 7.938l-1.734 2.09-1.578 1.972-2.438 3-1.562 2c-.527-10.881 1.84-18.706 9-27 1 2 1 2 1 5l1.625-2.187c2.608-3.089 5.161-5.368 8.375-7.813h2c2.735-5.275 4.257-9.28 4.125-15.312l-.055-3.239-.07-2.449z"/>
 <path fill="#7ABCD8" d="M335.11 286.417c3.205.032 5.89.243 8.974 1.04a84.764 84.764 0 0 1-2 7l1.68-1.13 2.195-1.433 2.18-1.442 1.945-.996 2 1-1.172 1.547c-7.22 10.08-9.433 20.184-9.828 32.453-3.004 1.001-4.978 1.121-8.114 1.114h-3.155l-3.4-.016-3.484-.004c-3.678-.006-7.357-.019-11.035-.031l-7.475-.014c-6.112-.011-12.225-.028-18.337-.049 1.096-3.476 2.204-6.675 4.066-9.812l1.204-2.05c.883-1.461 1.773-2.918 2.668-4.37 2.2-3.577 4.252-7.06 5.913-10.92 1.81-3.908 3.498-7.387 7.149-9.848 8.99-2.828 18.722-1.96 28.027-2.039z"/>
 <path fill="#368AB9" d="M494.084 206.456c10.3 4.302 18.228 16.67 24.762 25.357 1.107 1.47 2.23 2.926 3.355 4.381 9.818 12.993 17.377 27.378 23.883 42.262l1.394 3.149c8.286 20.044 13.55 43.105 12.606 64.851h-9l-1 21h-1l-.029-2.664c-.24-18.083-.798-35.649-4.971-53.336l-.63-2.683c-8.827-36.374-29.452-68.622-56.37-94.317 1.998-3.499 3.603-5.774 7-8z"/>
 <path fill="#ACDCEB" d="m404.084 223.456 2 1-1.375 2c-3.867 7.139-5.055 15.582-2.973 23.473 3.735 10.114 9.962 18.499 17.281 26.3a77.33 77.33 0 0 1 4.754 5.665c4.69 5.197 9.655 5.988 16.313 6.562.684 8.043-2.17 14.077-7.25 20.25-4.94 5.31-10.675 8.981-17.75 10.75h-4l-1-5c-9.648-1.642-17.107-1.602-26 3-1.708 1.28-3.394 2.595-5 4h-2c2.892-6.484 8.796-10.65 15.265-13.305 5.737-1.458 11.9-1.592 17.735-.695 2.953 1.906 2.953 1.906 5 4v2c8.446-4.171 14.314-7.302 17.812-16.375l1.188-3.625-2.012-.297c-6.496-1.1-10.248-2.39-14.559-7.601-5.829-7.031-12.194-10.94-21.43-12.102-14.62-.894-26.11 1.63-39.066 8.477-2.933 1.523-2.933 1.523-5.933 2.523 3.822.253 3.822.253 6.437-1 2.72-1.062 4.671-1.165 7.563-1-1.956 1.955-3.23 2.69-5.704 3.805l-2.222 1.02-4.602 2.077c-4.458 2.047-8.47 4.256-12.472 7.098 4.034-11.394 13.775-19.626 24.375-24.812 5.406-2.325 10.808-3.434 16.625-4.188l-.141-2.676c-.385-12.792 2.92-24.599 11.871-34.175 3.422-3.067 6.969-5.449 11.27-7.149z"/>
 <path fill="#296B99" d="M551.084 345.456c2.03.086 2.03.086 4.5.375l2.468.274c2.032.351 2.032.351 3.032 1.351 2.598 46.419-12.997 95.378-43 131a1518.637 1518.637 0 0 0-4.5 5.625l-3.5 4.375-13-2a57.552 57.552 0 0 1 7.437-9.687c30.176-33.548 43.915-79.47 45.272-123.825.2-6.398.2-6.398 1.29-7.488z"/>
 <path fill="#AEDEEC" d="M319.084 250.456c0 3.3-.337 3.83-2.204 6.379l-1.453 2.013-1.593 2.17c-1.112 1.546-2.221 3.093-3.329 4.641l-1.728 2.412c-19.588 27.586-40.958 58.487-46.693 92.385l-.399 2.344c-2.995 21.694 1.189 44.371 11.399 63.656v2l-14 1c-10.417-26.77-13.802-51.075-5-79l.778-2.475c9.737-30.04 29.01-56.623 49.429-80.373 1.822-2.02 1.822-2.02 2.793-4.152h2l.742-1.703c1.487-2.716 3.298-4.76 5.383-7.047l2.195-2.422 1.68-1.828z"/>
 <path fill="#368BB9" d="M198.084 234.456c1.691.09 3.38.246 5.062.438l2.785.308 2.153.254c-.606 3.036-1.544 5.077-3.336 7.59l-1.46 2.094-1.58 2.254c-13.362 19.608-23.297 40.912-28.624 64.062l-.836 3.633c-3.57 16.644-4.529 33.398-5.164 50.367l-10 1-1 4c-.944-45.519 7.196-93.054 36-130a204.352 204.352 0 0 1 5-5l1-1z"/>
 <path fill="#093051" d="M322.084 341.456c4.084 3.754 7.581 7.336 8.237 13.078.057 2.273.025 4.524-.05 6.797l-.041 2.375a488.688 488.688 0 0 1-.146 5.75l2.324-.992c2.773-1.044 4.743-1.175 7.676-1.008v2l-2.25 1.16c-3.7 2.476-4.888 5.329-6.75 9.278-2.738 5.769-5.123 9.76-11.176 12.574-4.961 1.569-9.639 2.517-14.824 2.988-3.284 8.1-4.467 14.844-1.313 23.25 4.39 9.705 11.71 15.08 21.52 19.047 7.967 2.712 15.234 3.885 23.605 4.266l2.678.13c2.17.106 4.34.207 6.51.307-6.56 4.373-13.809 4.316-21.438 4.25l-2.697.024c-11.905-.035-21.368-2.788-30.014-11.418-6.248-7.527-8.5-14.938-8.191-24.68 1.485-13.885 8.215-24.281 18.87-33.031l1.47-1.145c-8.059 3.425-13.826 8.878-18.09 16.496l-.91 1.504h-1c-.527-10.881 1.84-18.706 9-27 1 2 1 2 1 5l1.625-2.187c2.608-3.089 5.161-5.368 8.375-7.813h2c2.735-5.275 4.257-9.28 4.125-15.312l-.055-3.239-.07-2.449z"/>
 <path fill="#296C99" d="m168.084 365.456.196 1.778c4.366 38.604 15.997 74.464 40.905 104.886 2.737 3.368 5.323 6.844 7.899 10.336l-1.461 1.024-1.914 1.351-1.899 1.336c-1.85 1.317-1.85 1.317-3.726 3.29-12.858-12.925-22.638-28.89-31-45l-1.825-3.485c-11.14-22.532-19.273-49.153-18.175-74.516 3.674-1.176 7.169-1.074 11-1z"/>
 <path fill="#98D1E4" d="M267.103 427.968c2.705-.393 4.369-.374 6.98.488 2.534 2.643 4.52 5.55 6.57 8.567 7.315 10.663 17.347 18.072 28.43 24.433l2.583 1.488c10.639 5.7 22.467 9.116 34.418 10.512l2.812.336c13.553 1.363 26.777 1.044 40.188-1.336v2l6 1c-17.032 11.354-44.884 9.786-64.176 6.098-27.616-5.948-50.906-19.425-66.824-43.098-4-6.397-4-6.397-4-9 2.325-.6 4.684-.924 7.02-1.488z"/>
 <path fill="#184362" d="M357.084 204.456c3.177 1.363 4.87 2.755 6.918 5.527l1.6 2.136 1.669 2.275c4.668 6.339 4.668 6.339 9.7 12.386l2.488 2.801 2.21 2.383c1.99 3.506 1.335 5.648.415 9.492-.835 2.453-1.896 4.647-3 7-5.128-4.723-9.136-10.254-13.313-15.812l-2.244-2.967a3210.384 3210.384 0 0 1-5.443-7.22c-3.579 3.457-6.769 7.06-9.813 11l-1.381 1.773a1694.754 1694.754 0 0 0-4.806 6.226l-2.005 2.606a4601.353 4601.353 0 0 0-6.433 8.394l-2.08 2.715c-3.309 4.344-6.528 8.691-9.482 13.285-4.012-1.375-6.748-3.31-10-6a641.865 641.865 0 0 1 24.333-32.884 969.447 969.447 0 0 0 4.717-6.046c5.095-6.563 10.31-12.961 15.95-19.07z"/>
 <path fill="#0A3051" d="M435.084 313.456c4.029 1.343 4.85 3.796 6.687 7.375l1.044 2.006c7.816 15.32 15.56 32.168 16.269 49.62l.12 2.683c.286 12.631-1.595 24.52-6.12 36.316h-1l-.332-2.633-.481-3.492-.457-3.445c-.546-3.437-.546-3.437-2.309-6.149-2.113-4.877-1.562-9.414-1.359-14.656.399-22.742-8.922-40.818-19.062-60.625l7-7z"/>
 <path fill="#3F92BF" d="M494.084 206.456c10.3 4.302 18.228 16.67 24.762 25.357 1.107 1.47 2.23 2.926 3.355 4.381 4.118 5.45 7.717 11.14 11.195 17.012l1.276 2.15a101.11 101.11 0 0 1 6.412 13.1c-5.625 3-5.625 3-9 3l-1 3-1.766-3.558c-10.812-21.396-24.886-39.9-42.234-56.442 1.998-3.499 3.603-5.774 7-8z"/>
 <path fill="#3E91BE" d="M198.084 234.456c1.691.09 3.38.246 5.062.438l2.785.308 2.153.254c-.606 3.036-1.544 5.077-3.336 7.59l-1.462 2.097-1.577 2.25c-7.707 11.25-14.674 23.327-19.625 36.063l-2-1a95.333 95.333 0 0 0-5.125-.062l-2.758.027-2.117.035c2.022-6.853 4.832-13.015 8.187-19.312l1.473-2.784c4.883-9.106 9.84-17.68 17.34-24.904l1-1z"/>
 <path fill="#0B3354" d="m401.084 427.456 1 2c-5.873 12.196-15.49 20.186-28 25-6.174 1.793-12.153 2.387-18.563 2.375l-2.605-.003c-8.018-.145-19.426-.642-25.766-6.009l-1.066-1.363 3.414.48c22.257 2.752 45.02-.641 63.16-14.476 3.032-2.504 5.756-5.118 8.426-8.004z"/>
 <path fill="#0E3454" d="M397.084 231.456c1.28 2.56.714 3.282 0 6-1.104 11.853 1.973 21.91 8 32-2.796-.227-5.584-.48-8.375-.75l-2.407-.187c-5.805-.59-5.805-.59-7.75-2.813-.535-2.571-.663-4.873-.593-7.5l.054-2.703.07-2.047 4 1-1-2c-.761-7.11 1.21-11.99 5-18 1.669-1.793 1.669-1.793 3-3z"/>
 <path fill="#71B1CD" d="M387.084 364.456c15.498 2.298 33.976 10.19 43.585 23.137 1.102 1.926 1.102 1.926 2.415 4.863-2.735.285-2.735.285-6 0-2.204-1.941-2.204-1.941-4.25-4.562-9.616-11.277-22.513-16.4-35.75-22.438v-1z"/>
 <path fill="#A6D5E4" d="M395.084 284.456c5.244-.315 8.539.162 13 3 3 3.3 3 3.3 3 6-9.193.307-9.193.307-12-2-1.512-2.273-2.74-4.568-4-7z"/>
 <path fill="#A6D7E6" d="M319.084 250.456c0 3.784-1.168 5.11-3.313 8.188l-1.863 2.73-1.824 2.082h-3c1.515-3.478 3.577-5.956 6.125-8.75l2.195-2.422 1.68-1.828zm-12 13 2 1-2 1v-2z"/>
 <path fill="#66A3BF" d="m355.084 306.456 1 2-1 3a165.572 165.572 0 0 0-.563 5.688l-.254 3.011-.183 2.301-3-1c.594-10.558.594-10.558 4-15z"/>
 <path fill="#5AA3C5" d="M306.084 365.456h7l-2.875 3.375-1.618 1.899a75.82 75.82 0 0 1-3.507 3.726l1-9z"/>
 <path fill="#5F9AB7" d="M387.084 364.456c5.468 1.016 10.763 2.071 16 4-1.61 1.149-1.61 1.149-4 2-3.016-.898-3.016-.898-6.25-2.375l-3.266-1.46-2.484-1.165v-1z"/>
</svg>
