<?xml version="1.0" encoding="UTF-8"?>
<!DOCTYPE svg PUBLIC "-//W3C//DTD SVG 1.1//EN" "http://www.w3.org/Graphics/SVG/1.1/DTD/svg11.dtd">
<svg xmlns="http://www.w3.org/2000/svg" version="1.1" width="300px" height="300px" style="shape-rendering:geometricPrecision; text-rendering:geometricPrecision; image-rendering:optimizeQuality; fill-rule:evenodd; clip-rule:evenodd" xmlns:xlink="http://www.w3.org/1999/xlink">
<g><path style="opacity:0.992" fill="#010101" d="M 132.5,-0.5 C 143.833,-0.5 155.167,-0.5 166.5,-0.5C 230.795,9.61898 273.295,45.619 294,107.5C 296.278,115.877 298.111,124.21 299.5,132.5C 299.5,143.833 299.5,155.167 299.5,166.5C 289.381,230.795 253.381,273.295 191.5,294C 183.123,296.278 174.79,298.111 166.5,299.5C 155.167,299.5 143.833,299.5 132.5,299.5C 68.2047,289.381 25.7047,253.381 5,191.5C 2.72213,183.123 0.888795,174.79 -0.5,166.5C -0.5,155.167 -0.5,143.833 -0.5,132.5C 9.61898,68.2047 45.619,25.7047 107.5,5C 115.877,2.72213 124.21,0.888795 132.5,-0.5 Z"/></g>
<g><path style="opacity:1" fill="#fafafa" d="M 145.5,96.5 C 147.359,95.4058 149.359,94.5725 151.5,94C 148.861,93.4119 146.527,93.9119 144.5,95.5C 142.058,95.6463 141.391,94.813 142.5,93C 160.853,80.5207 180.186,78.5207 200.5,87C 205.167,91 209.833,95 214.5,99C 217.605,100.868 220.938,102.035 224.5,102.5C 222.682,111.48 217.682,117.98 209.5,122C 207.833,122.667 206.167,122.667 204.5,122C 203.122,120.287 201.455,118.953 199.5,118C 187.32,115.726 177.154,119.226 169,128.5C 162.901,138.589 163.068,148.589 169.5,158.5C 158.385,156.256 150.551,149.59 146,138.5C 144.927,132.551 144.26,126.551 144,120.5C 140.955,130.545 142.288,139.879 148,148.5C 152.841,154.331 158.674,158.831 165.5,162C 181.307,166.824 196.64,172.824 211.5,180C 234.133,194.899 240.966,215.066 232,240.5C 233.593,206.115 217.759,184.948 184.5,177C 198.822,182.57 210.655,191.403 220,203.5C 227.414,214.889 229.414,227.222 226,240.5C 221.65,257.517 211.484,269.684 195.5,277C 176.491,284.229 156.825,286.563 136.5,284C 91.5887,276.966 63.422,251.466 52,207.5C 48.2342,185.798 50.5675,164.798 59,144.5C 67.9713,125.887 77.9713,107.887 89,90.5C 104.511,68.1457 120.511,46.1457 137,24.5C 140.667,20.8333 144.333,17.1667 148,13.5C 150.628,15.1255 152.961,17.1255 155,19.5C 160.618,27.4533 166.618,35.12 173,42.5C 173.766,47.4403 172.932,52.1069 170.5,56.5C 169.998,57.521 169.332,57.6877 168.5,57C 161.474,49.1088 154.808,40.9421 148.5,32.5C 124.477,60.8675 102.644,90.8675 83,122.5C 72.9744,138.911 66.3078,156.578 63,175.5C 60.8413,192.88 63.3413,209.546 70.5,225.5C 76.5916,223.956 81.9249,221.123 86.5,217C 88.9986,205.998 94.3319,196.664 102.5,189C 100.369,189.398 98.3687,190.398 96.5,192C 93.3333,195.833 90.1667,199.667 87,203.5C 85.5543,193.401 88.3877,184.734 95.5,177.5C 96.2811,178.729 96.7811,180.062 97,181.5C 100.049,176.784 104.049,173.118 109,170.5C 111.821,164.511 113.154,158.178 113,151.5C 116.098,153.928 118.431,156.928 120,160.5C 120.17,166.528 120.67,172.528 121.5,178.5C 124.333,177.067 127.333,176.4 130.5,176.5C 124.921,183.454 119.921,190.954 115.5,199C 109.374,202.701 102.708,204.868 95.5,205.5C 89.8538,220.078 93.1871,232.245 105.5,242C 118.782,249.525 133.115,252.859 148.5,252C 144.44,254.187 140.106,255.687 135.5,256.5C 157.401,260.588 176.068,254.254 191.5,237.5C 191.833,238 192.167,238.5 192.5,239C 189.117,244.926 185.117,250.426 180.5,255.5C 182.853,258.991 185.853,259.491 189.5,257C 204.888,240.87 207.721,222.703 198,202.5C 193.876,196.042 188.71,190.542 182.5,186C 170.5,178.333 158.5,170.667 146.5,163C 134.09,151.103 129.257,136.603 132,119.5C 133.833,112.831 136.5,106.498 140,100.5C 141.432,98.5612 143.265,97.2279 145.5,96.5 Z"/></g>
<g><path style="opacity:1" fill="#e18382" d="M 192.5,94.5 C 190.265,94.2053 188.265,94.5386 186.5,95.5C 185.957,95.44 185.624,95.1067 185.5,94.5C 187.973,93.2031 190.307,93.2031 192.5,94.5 Z"/></g>
<g><path style="opacity:1" fill="#656565" d="M 145.5,96.5 C 145.5,95.8333 145.167,95.5 144.5,95.5C 146.527,93.9119 148.861,93.4119 151.5,94C 149.359,94.5725 147.359,95.4058 145.5,96.5 Z"/></g>
<g><path style="opacity:1" fill="#c42115" d="M 192.5,94.5 C 197.914,95.2464 200.914,98.2464 201.5,103.5C 193.987,105.247 188.987,102.58 186.5,95.5C 188.265,94.5386 190.265,94.2053 192.5,94.5 Z"/></g>
<g><path style="opacity:1" fill="#f8f8f8" d="M 224.5,123.5 C 227.522,123.428 229.688,124.762 231,127.5C 239.239,141.974 245.239,157.308 249,173.5C 250.26,187.02 249.26,200.353 246,213.5C 245.381,216.032 244.381,218.365 243,220.5C 242.523,214.1 240.856,208.1 238,202.5C 238.175,189.662 236.841,176.995 234,164.5C 229.605,152.648 224.439,141.148 218.5,130C 220.706,127.963 222.706,125.797 224.5,123.5 Z"/></g>
</svg>
